<svg width="21" height="20" viewBox="0 0 21 20" fill="none" xmlns="http://www.w3.org/2000/svg">
<g clip-path="url(#clip0_141_1375)">
<path fill-rule="evenodd" clip-rule="evenodd" d="M15.5141 0.122853C14.3826 -0.102203 13.2103 -0.00586669 12.131 0.400893C11.0516 0.807653 10.1085 1.50849 9.40886 2.42363C8.70927 3.33875 8.28138 4.43139 8.17387 5.57716C8.08898 6.48212 8.20665 7.39149 8.5147 8.24061L1.16059 15.5752C0.309016 16.4244 0.323137 17.8057 1.1919 18.6375L1.9955 19.4068C2.83628 20.2119 4.16715 20.202 4.99577 19.3845L12.4513 12.0294C13.2742 12.2953 14.147 12.3867 15.013 12.2941C16.149 12.1727 17.229 11.7394 18.1327 11.0424C19.0365 10.3454 19.7288 9.41208 20.1326 8.34616C20.536 7.28113 20.6354 6.12546 20.4201 5.00744C20.3741 4.76015 20.2765 4.52524 20.1337 4.31782C19.9904 4.10963 19.8049 3.93382 19.5891 3.80179C19.3066 3.62896 18.9422 3.67191 18.7078 3.90562L15.8417 6.764L15.8326 6.77338C15.7658 6.84254 15.6855 6.89755 15.597 6.93512C15.5083 6.97271 15.413 6.99206 15.3167 6.99206C15.2204 6.99206 15.1251 6.97271 15.0364 6.93512C14.9478 6.89755 14.8676 6.84254 14.8008 6.77338C14.7885 6.7607 14.7758 6.74848 14.7627 6.73675L13.6941 5.78319C13.5712 5.65121 13.5027 5.47758 13.5027 5.29701C13.5027 5.11096 13.5754 4.93228 13.7054 4.79892L16.5686 1.94349C16.7752 1.73733 16.8357 1.42658 16.721 1.15831C16.6174 0.915522 16.4616 0.69842 16.2646 0.522357C16.0674 0.346295 15.834 0.215573 15.5808 0.139443C15.5589 0.132855 15.5365 0.127319 15.5141 0.122853Z" fill="#111827"/>
</g>
<defs>
<clipPath id="clip0_141_1375">
<rect width="20" height="20" fill="white" transform="translate(0.5 3.05176e-05)"/>
</clipPath>
</defs>
</svg>
