<svg width="21" height="20" viewBox="0 0 21 20" fill="none" xmlns="http://www.w3.org/2000/svg">
<g clip-path="url(#clip0_141_1372)">
<path fill-rule="evenodd" clip-rule="evenodd" d="M0.954546 8.6356C0.664634 8.90582 0.5 9.28432 0.5 9.68063V17.8572C0.5 19.0406 1.45939 20 2.64286 20H9.07143V15.7143C9.07143 14.9253 9.71103 14.2857 10.5 14.2857C11.289 14.2857 11.9286 14.9253 11.9286 15.7143V20H18.3571C19.5406 20 20.5 19.0406 20.5 17.8572V9.68063C20.5 9.28432 20.3354 8.90582 20.0454 8.6356L10.9649 0.17199C10.6974 -0.0572893 10.3026 -0.0572896 10.0351 0.17199L0.954546 8.6356Z" fill="#111827"/>
</g>
<defs>
<clipPath id="clip0_141_1372">
<rect width="20" height="20" fill="white" transform="translate(0.5 3.05176e-05)"/>
</clipPath>
</defs>
</svg>
