<svg width="15" height="14" viewBox="0 0 15 14" fill="none" xmlns="http://www.w3.org/2000/svg">
<g clip-path="url(#clip0_141_1387)">
<path fill-rule="evenodd" clip-rule="evenodd" d="M2.00024 0C1.17182 0 0.500244 0.671573 0.500244 1.5V12.5C0.500244 13.3284 1.17182 14 2.00024 14H4.50024C5.32867 14 6.00024 13.3284 6.00024 12.5V1.5C6.00024 0.671573 5.32867 0 4.50024 0H2.00024ZM8 6C7.44772 6 7 6.44772 7 7C7 7.55228 7.44772 8 8 8H11V9.5C11 9.70223 11.1218 9.88455 11.3087 9.96194C11.4955 10.0393 11.7106 9.99655 11.8536 9.85355L14.3536 7.35355C14.5488 7.15829 14.5488 6.84171 14.3536 6.64645L11.8536 4.14645C11.7106 4.00345 11.4955 3.96067 11.3087 4.03806C11.1218 4.11545 11 4.29777 11 4.5V6H8Z" fill="#111827"/>
</g>
<defs>
<clipPath id="clip0_141_1387">
<rect width="14" height="14" fill="white" transform="translate(0.5)"/>
</clipPath>
</defs>
</svg>
