<svg width="172" height="173" viewBox="0 0 172 173" fill="none" xmlns="http://www.w3.org/2000/svg">
<path d="M104.341 32.5134C104.658 32.6331 104.975 32.7525 105.293 32.8717C107.337 33.6471 109.3 34.4989 111.233 35.5175C111.586 35.695 111.939 35.872 112.293 36.0476C112.293 36.1642 112.293 36.2809 112.293 36.401C112.481 36.4256 112.481 36.4256 112.672 36.4507C113.269 36.601 113.67 36.8556 114.182 37.1962C114.813 37.6203 114.813 37.6203 115.474 37.9914C115.474 38.108 115.474 38.2247 115.474 38.3448C115.665 38.4125 115.665 38.4125 115.859 38.4815C116.392 38.713 116.799 38.991 117.263 39.3388C117.516 39.5271 117.516 39.5271 117.774 39.7191C117.948 39.8487 118.122 39.9784 118.301 40.1119C118.801 40.4684 119.301 40.8247 119.802 41.1797C120.286 41.5577 120.699 41.9706 121.129 42.4091C121.672 42.9236 122.222 43.4301 122.772 43.9381C123.789 44.8826 124.792 45.8412 125.712 46.882C125.816 46.998 125.919 47.1139 126.026 47.2334C126.253 47.5337 126.253 47.5337 126.253 47.8871C126.37 47.8871 126.487 47.8871 126.607 47.8871C126.607 48.062 126.607 48.237 126.607 48.4172C126.754 48.4664 126.754 48.4664 126.905 48.5166C127.496 48.8839 127.852 49.4082 128.197 50.0076C128.197 50.1242 128.197 50.2408 128.197 50.361C128.314 50.361 128.43 50.361 128.551 50.361C128.812 50.6786 128.812 50.6786 129.115 51.1244C129.226 51.2872 129.338 51.45 129.452 51.6177C129.629 51.8813 129.629 51.8813 129.81 52.1502C129.93 52.3279 130.05 52.5057 130.174 52.6888C130.937 53.8274 131.655 54.974 132.315 56.1758C132.618 56.7282 132.941 57.2656 133.266 57.8048C133.765 58.6554 134.16 59.5175 134.517 60.4361C134.688 60.8502 134.872 61.2386 135.076 61.6365C135.455 62.3846 135.763 63.1509 136.061 63.9344C136.114 64.0744 136.168 64.2143 136.223 64.3585C136.329 64.6349 136.434 64.9114 136.539 65.1881C136.655 65.4937 136.773 65.7986 136.891 66.1032C137.393 67.4257 137.746 68.7824 138.093 70.1524C138.154 70.3894 138.215 70.6263 138.276 70.8633C141.813 84.6978 140.774 100.311 133.675 112.916C133.502 113.24 133.329 113.564 133.156 113.888C132.175 115.673 131.118 117.404 129.975 119.09C129.892 119.214 129.808 119.339 129.722 119.467C129.518 119.764 129.3 120.052 129.081 120.338C128.964 120.338 128.847 120.338 128.727 120.338C128.68 120.436 128.632 120.534 128.584 120.636C128.355 121.082 128.122 121.51 127.844 121.928C127.727 121.928 127.61 121.928 127.49 121.928C127.45 122.056 127.41 122.183 127.369 122.315C127.089 122.913 126.731 123.24 126.253 123.695C126.093 123.888 125.935 124.084 125.778 124.28C125.644 124.437 125.509 124.594 125.37 124.755C125.253 124.755 125.137 124.755 125.016 124.755C124.976 124.854 124.936 124.952 124.895 125.053C124.597 125.579 124.227 125.943 123.779 126.346C123.663 126.346 123.546 126.346 123.426 126.346C123.388 126.443 123.349 126.541 123.31 126.641C122.99 127.195 122.575 127.553 122.101 127.98C122.013 128.061 121.924 128.142 121.834 128.226C121.175 128.82 121.175 128.82 120.775 128.82C120.775 128.936 120.775 129.053 120.775 129.173C120.633 129.22 120.491 129.268 120.345 129.317C120.195 129.386 120.046 129.455 119.892 129.526C119.833 129.701 119.775 129.876 119.715 130.057C119.401 130.34 119.401 130.34 119.019 130.62C118.894 130.713 118.768 130.807 118.639 130.904C118.301 131.117 118.301 131.117 117.948 131.117C117.948 131.233 117.948 131.35 117.948 131.47C117.173 132 117.173 132 116.711 132C116.711 132.117 116.711 132.234 116.711 132.354C115.936 132.884 115.936 132.884 115.474 132.884C115.474 133.001 115.474 133.117 115.474 133.237C115.097 133.493 115.097 133.493 114.568 133.79C114.278 133.954 114.278 133.954 113.981 134.122C113.878 134.18 113.775 134.238 113.669 134.297C113.256 134.529 112.846 134.767 112.436 135.003C108.895 137.043 108.895 137.043 107.26 137.663C106.764 137.851 106.277 138.056 105.788 138.262C105.424 138.414 105.059 138.564 104.695 138.715C104.527 138.786 104.359 138.857 104.186 138.931C98.6878 141.167 92.6171 142.029 86.7189 141.988C86.0638 141.984 85.4091 141.988 84.7541 141.993C80.7013 141.998 76.6982 141.566 72.7827 140.495C72.4004 140.391 72.0171 140.291 71.6334 140.192C70.4392 139.878 69.2781 139.532 68.1393 139.049C67.3679 138.727 66.5644 138.497 65.7679 138.246C65.1642 138.027 64.6176 137.774 64.0489 137.48C63.7204 137.313 63.3894 137.159 63.0524 137.01C59.7121 135.519 56.5971 133.595 53.6261 131.47C53.4511 131.354 53.2762 131.237 53.096 131.117C53.096 131 53.096 130.884 53.096 130.763C52.921 130.763 52.7461 130.763 52.5658 130.763C52.5658 130.647 52.5658 130.53 52.5658 130.41C52.4237 130.363 52.2816 130.315 52.1351 130.266C51.911 130.163 51.911 130.163 51.6823 130.057C51.5948 129.794 51.5948 129.794 51.5056 129.526C51.3306 129.526 51.1557 129.526 50.9755 129.526C50.9755 129.41 50.9755 129.293 50.9755 129.173C50.8588 129.173 50.7422 129.173 50.622 129.173C50.622 129.056 50.622 128.94 50.622 128.82C50.5248 128.778 50.4275 128.737 50.3273 128.695C48.8478 127.874 47.5861 126.33 46.3921 125.142C46.2814 125.032 46.1708 124.922 46.0567 124.809C44.2605 123.007 44.2605 123.007 44.2605 122.458C44.1439 122.458 44.0273 122.458 43.9071 122.458C43.8597 122.316 43.8124 122.174 43.7635 122.027C43.6943 121.878 43.625 121.729 43.5537 121.575C43.3788 121.516 43.2038 121.458 43.0236 121.398C42.3167 120.449 42.3167 120.449 42.3167 119.984C42.2001 119.984 42.0835 119.984 41.9633 119.984C41.7285 119.698 41.7285 119.698 41.4649 119.301C41.3704 119.159 41.2759 119.017 41.1785 118.871C41.0312 118.646 41.0312 118.646 40.881 118.416C40.7814 118.267 40.6819 118.118 40.5793 117.965C39.8428 116.851 39.8428 116.851 39.8428 116.45C39.7262 116.45 39.6096 116.45 39.4894 116.45C39.1352 115.803 38.782 115.154 38.4291 114.506C38.2795 114.232 38.2795 114.232 38.1268 113.953C37.0159 111.907 35.976 109.869 35.1352 107.698C34.9732 107.284 34.8034 106.874 34.6265 106.466C33.0147 102.656 32.1104 98.4693 31.4933 94.3946C31.4501 94.1138 31.4501 94.1138 31.406 93.8274C31.0376 91.2709 30.9776 88.7082 30.9844 86.1296C30.9853 85.7029 30.9844 85.2762 30.9832 84.8495C30.9817 82.1791 31.1047 79.5544 31.5154 76.9115C31.5439 76.7167 31.5724 76.5219 31.6017 76.3213C31.8907 74.4105 32.3264 72.5413 32.8518 70.6825C32.8856 70.5604 32.9194 70.4383 32.9543 70.3125C33.0684 69.9049 33.1858 69.4984 33.3046 69.0921C33.3551 68.9188 33.4057 68.7456 33.4578 68.567C33.886 67.1351 34.3898 65.7438 34.9392 64.3541C35.0246 64.1376 35.1101 63.921 35.1982 63.6979C36.8387 59.5961 39.0554 54.9721 41.9633 51.598C42.0799 51.598 42.1966 51.598 42.3167 51.598C42.3167 51.423 42.3167 51.2481 42.3167 51.0678C42.4334 51.0678 42.55 51.0678 42.6702 51.0678C42.7412 50.8546 42.7412 50.8546 42.8137 50.6371C42.883 50.4877 42.9522 50.3382 43.0236 50.1843C43.1985 50.126 43.3735 50.0677 43.5537 50.0076C43.5537 49.8326 43.5537 49.6577 43.5537 49.4775C43.6703 49.4775 43.787 49.4775 43.9071 49.4775C43.9527 49.3781 43.9982 49.2788 44.0452 49.1765C44.2856 48.7234 44.5659 48.3373 44.879 47.9313C44.9865 47.79 45.094 47.6488 45.2048 47.5033C45.3014 47.3967 45.398 47.2901 45.4975 47.1802C45.6141 47.1802 45.7307 47.1802 45.8509 47.1802C45.8509 47.0636 45.8509 46.947 45.8509 46.8268C45.9675 46.8268 46.0842 46.8268 46.2043 46.8268C46.2918 46.5644 46.2918 46.5644 46.381 46.2967C46.4977 46.2967 46.6143 46.2967 46.7345 46.2967C46.7345 46.1801 46.7345 46.0634 46.7345 45.9433C46.8511 45.9433 46.9677 45.9433 47.0879 45.9433C47.0879 45.8267 47.0879 45.71 47.0879 45.5899C47.2045 45.5899 47.3211 45.5899 47.4413 45.5899C47.4887 45.4769 47.536 45.3639 47.5849 45.2475C47.7947 44.883 47.7947 44.883 48.3248 44.7063C48.3248 44.5897 48.3248 44.4731 48.3248 44.3529C48.4415 44.3529 48.5581 44.3529 48.6782 44.3529C48.6782 44.2363 48.6782 44.1196 48.6782 43.9995C48.7949 43.9995 48.9115 43.9995 49.0317 43.9995C49.0317 43.8829 49.0317 43.7662 49.0317 43.6461C49.1483 43.6461 49.2649 43.6461 49.3851 43.6461C49.4726 43.3837 49.4726 43.3837 49.5618 43.1159C49.8715 42.8281 50.1937 42.5533 50.5226 42.2876C50.7847 42.0734 50.7847 42.0734 51.0521 41.8548C51.5056 41.5256 51.5056 41.5256 51.859 41.5256C51.859 41.4089 51.859 41.2923 51.859 41.1722C51.9756 41.1722 52.0923 41.1722 52.2124 41.1722C52.2124 41.0555 52.2124 40.9389 52.2124 40.8187C52.4545 40.6064 52.4545 40.6064 52.795 40.3701C52.9195 40.2828 53.0441 40.1956 53.1724 40.1057C53.3751 39.9666 53.3751 39.9666 53.5819 39.8247C53.7894 39.6809 53.7894 39.6809 54.0011 39.5341C54.2795 39.3416 54.5583 39.1496 54.8375 38.9583C55.1455 38.7469 55.4518 38.5331 55.7576 38.3186C58.2662 36.5903 60.9616 35.1346 63.7395 33.8914C64.0119 33.7684 64.282 33.6404 64.5516 33.5116C66.8703 32.4092 69.3404 31.5517 71.8271 30.9231C71.9642 30.888 72.1014 30.853 72.2427 30.8168C74.629 30.2151 77.0056 29.8253 79.4518 29.5639C79.9258 29.5126 80.399 29.4565 80.8723 29.3989C88.5901 28.4936 97.1232 29.6649 104.341 32.5134ZM71.2969 65.0278C71.2969 65.1444 71.2969 65.2611 71.2969 65.3812C71.1985 65.4286 71.1001 65.476 70.9987 65.5248C70.5526 65.7539 70.1241 65.9864 69.7066 66.2648C69.7066 66.3814 69.7066 66.498 69.7066 66.6182C69.6041 66.6649 69.5016 66.7116 69.3959 66.7597C68.2795 67.3568 67.2474 68.4096 66.5258 69.4455C66.5258 69.5621 66.5258 69.6788 66.5258 69.7989C66.4092 69.7989 66.2926 69.7989 66.1724 69.7989C65.932 70.0616 65.932 70.0616 65.7085 70.3953C65.6297 70.506 65.5509 70.6167 65.4697 70.7308C65.2588 71.0275 65.2588 71.0275 65.2889 71.3893C65.1722 71.3893 65.0556 71.3893 64.9354 71.3893C61.0967 78.2525 59.4047 84.974 61.5228 92.7158C62.1341 94.8422 63.1301 96.6934 64.2286 98.6024C64.3452 98.6024 64.4619 98.6024 64.582 98.6024C64.6986 98.9523 64.8153 99.3022 64.9354 99.6627C65.0521 99.6627 65.1687 99.6627 65.2889 99.6627C65.2889 99.8376 65.2889 100.013 65.2889 100.193C65.4857 100.402 65.6849 100.609 65.8949 100.804C66.3427 101.243 66.7341 101.731 67.1353 102.212C67.2257 102.304 67.3162 102.395 67.4094 102.49C67.526 102.49 67.6426 102.49 67.7628 102.49C67.8102 102.596 67.8575 102.701 67.9063 102.81C68.116 103.197 68.3099 103.447 68.6463 103.727C68.7629 103.727 68.8796 103.727 68.9997 103.727C68.9997 103.844 68.9997 103.96 68.9997 104.08C69.2922 104.26 69.5869 104.437 69.8833 104.611C69.9416 104.727 69.9999 104.844 70.06 104.964C70.2349 104.964 70.4099 104.964 70.5901 104.964C70.5901 105.081 70.5901 105.197 70.5901 105.317C71.1149 105.492 71.1149 105.492 71.6504 105.671C71.6504 105.787 71.6504 105.904 71.6504 106.024C71.7788 106.088 71.9073 106.153 72.0397 106.219C72.2173 106.308 72.395 106.397 72.5781 106.488C72.8719 106.634 72.8719 106.634 73.1717 106.782C73.5374 106.967 73.9008 107.156 74.2596 107.354C75.8993 108.239 77.6333 108.73 79.4255 109.205C79.7539 109.296 79.7539 109.296 80.0889 109.389C85.9936 110.77 92.0238 109.294 97.2731 106.554C97.3897 106.496 97.5064 106.438 97.6265 106.378C97.6265 106.261 97.6265 106.144 97.6265 106.024C97.7782 105.982 97.9299 105.94 98.0862 105.897C98.7603 105.643 99.2408 105.311 99.8133 104.876C99.9096 104.804 100.006 104.733 100.105 104.66C100.347 104.476 100.578 104.279 100.807 104.08C100.807 103.964 100.807 103.847 100.807 103.727C100.924 103.727 101.041 103.727 101.161 103.727C101.161 103.61 101.161 103.494 101.161 103.374C101.259 103.333 101.358 103.293 101.459 103.252C101.984 102.954 102.348 102.584 102.751 102.137C102.751 102.02 102.751 101.903 102.751 101.783C102.868 101.783 102.984 101.783 103.104 101.783C103.395 101.459 103.659 101.135 103.922 100.789C104 100.687 104.079 100.584 104.159 100.478C104.978 99.3808 105.634 98.2149 106.285 97.0121C106.356 96.8913 106.427 96.7706 106.5 96.6463C107.062 95.6768 107.464 94.7086 107.809 93.6435C107.862 93.4831 107.915 93.3226 107.97 93.1573C108.421 91.7469 108.707 90.3451 108.936 88.8835C108.966 88.7488 108.996 88.6142 109.027 88.4755C110.034 82.8696 108.251 77.3558 105.446 72.5821C105.377 72.4639 105.308 72.3456 105.238 72.2238C105.067 71.9393 104.882 71.6633 104.695 71.3893C104.578 71.3893 104.462 71.3893 104.341 71.3893C104.301 71.2654 104.261 71.1415 104.22 71.0138C103.928 70.3748 103.583 69.9601 103.104 69.4455C102.988 69.4455 102.871 69.4455 102.751 69.4455C102.751 69.3289 102.751 69.2123 102.751 69.0921C102.634 69.0921 102.518 69.0921 102.398 69.0921C102.35 68.9864 102.303 68.8807 102.254 68.7718C102.044 68.3855 101.851 68.1355 101.514 67.8551C101.397 67.8551 101.281 67.8551 101.161 67.8551C101.161 67.7385 101.161 67.6219 101.161 67.5017C100.817 67.1808 100.817 67.1808 100.388 66.8612C100.244 66.7495 100.101 66.6379 99.9527 66.5229C99.5984 66.2318 99.5984 66.2318 99.2169 66.2648C99.2169 66.1481 99.2169 66.0315 99.2169 65.9114C98.2863 65.2168 97.262 64.6344 96.2135 64.1367C95.9619 64.0165 95.7132 63.8902 95.4667 63.7598C87.7448 59.7042 78.6152 60.8085 71.2969 65.0278Z" fill="#EC6019"/>
<path d="M23.2322 24.9147C26.2279 25.5532 26.2279 25.5532 27.6057 25.9639C28.6715 26.2799 29.7454 26.5295 30.8306 26.7701C32.0977 27.0511 33.3415 27.3656 34.5857 27.7365C35.4484 27.9737 36.3188 28.1668 37.1922 28.3605C38.4592 28.6415 39.703 28.956 40.9472 29.3269C41.8099 29.5641 42.6803 29.7572 43.5537 29.9509C44.8381 30.2358 46.0982 30.5509 47.3591 30.9269C48.2333 31.1733 49.1165 31.3756 50.0024 31.5755C50.9408 31.789 50.9408 31.789 51.3288 31.983C51.1742 33.1758 51.1742 33.1758 50.9754 33.5734C50.8588 33.5734 50.7422 33.5734 50.622 33.5734C50.622 33.69 50.622 33.8066 50.622 33.9268C50.5054 33.9268 50.3888 33.9268 50.2686 33.9268C50.1982 34.0824 50.1982 34.0824 50.1265 34.2411C49.9088 34.6455 49.6767 34.9276 49.3616 35.2604C49.1935 35.4388 49.1935 35.4388 49.0221 35.6208C48.9013 35.7469 48.7805 35.8731 48.6561 36.0031C48.4699 36.1991 48.4699 36.1991 48.2798 36.399C47.3682 37.3539 46.4479 38.3004 45.5195 39.2391C45.3988 39.3622 45.278 39.4852 45.1536 39.612C44.9856 39.7804 44.9856 39.7804 44.8141 39.9522C44.7155 40.0515 44.6169 40.1508 44.5153 40.2532C44.2605 40.465 44.2605 40.465 43.9071 40.465C43.9071 40.5817 43.9071 40.6983 43.9071 40.8184C43.6289 41.0925 43.6289 41.0925 43.2555 41.4038C42.8159 41.7758 42.3931 42.1461 41.9964 42.5634C41.6099 42.9389 41.6099 42.9389 41.0797 43.1157C41.0214 43.2323 40.9631 43.3489 40.903 43.4691C40.8447 43.5857 40.7864 43.7023 40.7263 43.8225C40.4639 43.91 40.4639 43.91 40.1962 43.9992C40.1962 44.1158 40.1962 44.2325 40.1962 44.3526C40.0796 44.3526 39.9629 44.3526 39.8428 44.3526C39.8428 44.4692 39.8428 44.5859 39.8428 44.706C39.7262 44.706 39.6095 44.706 39.4894 44.706C39.4894 44.8227 39.4894 44.9393 39.4894 45.0594C39.3727 45.0594 39.2561 45.0594 39.1359 45.0594C39.0485 45.3219 39.0485 45.3219 38.9592 45.5896C38.8426 45.5896 38.726 45.5896 38.6058 45.5896C38.6058 45.7062 38.6058 45.8228 38.6058 45.943C38.4892 45.943 38.3726 45.943 38.2524 45.943C38.2524 46.0596 38.2524 46.1762 38.2524 46.2964C38.1358 46.2964 38.0192 46.2964 37.899 46.2964C37.899 46.413 37.899 46.5297 37.899 46.6498C37.7824 46.6498 37.6657 46.6498 37.5456 46.6498C37.4581 46.9122 37.4581 46.9122 37.3689 47.18C37.2522 47.18 37.1356 47.18 37.0154 47.18C37.0154 47.2966 37.0154 47.4132 37.0154 47.5334C36.8988 47.5334 36.7822 47.5334 36.662 47.5334C36.662 47.65 36.662 47.7666 36.662 47.8868C36.5454 47.8868 36.4288 47.8868 36.3086 47.8868C36.2612 47.9998 36.2139 48.1128 36.165 48.2292C35.9552 48.5936 35.9552 48.5936 35.4251 48.7703C35.4251 48.887 35.4251 49.0036 35.4251 49.1237C35.3084 49.1237 35.1918 49.1237 35.0717 49.1237C35.0717 49.2404 35.0717 49.357 35.0717 49.4772C34.955 49.4772 34.8384 49.4772 34.7182 49.4772C34.6781 49.6047 34.6381 49.7323 34.5967 49.8637C34.3182 50.4607 33.9566 50.7915 33.4813 51.2442C33.3756 51.3973 33.2699 51.5504 33.161 51.7081C32.6452 52.2681 32.0945 52.4817 31.3608 52.6579C31.1275 52.6579 30.8943 52.6579 30.6539 52.6579C30.6157 52.5077 30.5775 52.3575 30.5382 52.2027C29.596 48.4929 29.596 48.4929 28.5465 44.8123C28.1289 43.4122 27.7702 41.9955 27.4076 40.5803C26.9457 38.7839 26.4607 37.0011 25.9154 35.2281C25.5536 34.0392 25.2499 32.8401 24.9561 31.6328C24.71 30.6282 24.4256 29.6426 24.1123 28.6566C23.9078 27.9945 23.7218 27.3287 23.5414 26.6597C23.4822 26.4405 23.423 26.2214 23.3619 25.9956C23.2322 25.4448 23.2322 25.4448 23.2322 24.9147Z" fill="#EC6019"/>
<path d="M85.5551 0.0872803C86.1405 0.175635 86.1405 0.175635 86.4939 0.352343C86.6625 0.659827 86.8187 0.974148 86.9688 1.29111C87.3421 2.05864 87.7358 2.79986 88.1726 3.5331C88.6833 4.39355 89.1411 5.26861 89.5766 6.16923C89.8671 6.74505 90.1772 7.30669 90.4921 7.8694C90.9208 8.63721 91.341 9.40972 91.762 10.1818C91.8549 10.352 91.9477 10.5223 92.0434 10.6977C92.6856 11.8765 93.3211 13.0585 93.9508 14.244C94.4652 15.2114 94.9853 16.1757 95.506 17.1397C95.6424 17.3935 95.6424 17.3935 95.7814 17.6525C96.1948 18.418 96.6168 19.1718 97.0743 19.9118C97.8111 21.1244 98.4149 22.4056 99.0402 23.6779C99.4775 24.5526 99.4775 24.5526 99.9237 25.445C90.4186 25.445 80.9134 25.445 71.1202 25.445C71.7166 24.0534 71.7166 24.0534 71.9727 23.546C72.0268 23.4384 72.0809 23.3308 72.1367 23.2199C72.1912 23.1123 72.2458 23.0046 72.302 22.8937C72.3586 22.7813 72.4152 22.6689 72.4735 22.5531C72.6111 22.2799 72.7492 22.007 72.8873 21.7341C73.004 21.7341 73.1206 21.7341 73.2407 21.7341C73.2553 21.6138 73.2699 21.4935 73.2849 21.3696C73.4522 20.7146 73.7836 20.1902 74.1243 19.6136C75.1289 17.8866 75.1289 17.8866 76.046 16.1125C76.4823 15.2196 76.9726 14.3697 77.4817 13.5171C78.1875 12.3347 78.8296 11.1367 79.4255 9.89461C79.5649 9.61456 79.7047 9.33474 79.8452 9.05524C79.94 8.86572 80.0347 8.6762 80.1324 8.48094C80.249 8.48094 80.3656 8.48094 80.4858 8.48094C80.5052 8.38481 80.5245 8.28868 80.5445 8.18964C80.9322 6.82464 81.7652 5.56449 82.5055 4.36487C82.836 3.79521 83.1243 3.20804 83.4125 2.61642C84.6019 0.216537 84.6019 0.216537 85.5551 0.0872803Z" fill="#EC6019"/>
<path d="M29.2405 117.864C29.8356 118.132 30.0548 118.309 30.3007 118.924C30.4174 118.924 30.534 118.924 30.6542 118.924C30.6542 119.04 30.6542 119.157 30.6542 119.277C30.7599 119.325 30.8656 119.372 30.9744 119.421C31.3607 119.63 31.6107 119.824 31.8911 120.161C31.8911 120.277 31.8911 120.394 31.8911 120.514C32.0078 120.514 32.1244 120.514 32.2445 120.514C32.2445 120.631 32.2445 120.747 32.2445 120.868C32.3502 120.915 32.4559 120.962 32.5648 121.011C32.9511 121.221 33.2011 121.415 33.4815 121.751C33.4815 121.868 33.4815 121.984 33.4815 122.105C33.5981 122.105 33.7148 122.105 33.8349 122.105C33.8349 122.221 33.8349 122.338 33.8349 122.458C33.9406 122.505 34.0463 122.553 34.1552 122.602C34.5415 122.811 34.7915 123.005 35.0719 123.341C35.0719 123.458 35.0719 123.575 35.0719 123.695C35.1885 123.695 35.3051 123.695 35.4253 123.695C35.4253 123.812 35.4253 123.928 35.4253 124.048C35.531 124.096 35.6367 124.143 35.7456 124.192C36.1319 124.402 36.3819 124.595 36.6623 124.932C36.6623 125.048 36.6623 125.165 36.6623 125.285C36.7789 125.285 36.8955 125.285 37.0157 125.285C37.0157 125.402 37.0157 125.519 37.0157 125.639C37.1214 125.686 37.2271 125.733 37.336 125.782C37.7222 125.992 37.9723 126.186 38.2526 126.522C38.2526 126.639 38.2526 126.756 38.2526 126.876C38.3693 126.876 38.4859 126.876 38.606 126.876C38.606 126.992 38.606 127.109 38.606 127.229C38.7117 127.276 38.8174 127.324 38.9263 127.373C39.3126 127.582 39.5626 127.776 39.843 128.113C39.843 128.229 39.843 128.346 39.843 128.466C39.9596 128.466 40.0763 128.466 40.1964 128.466C40.1964 128.583 40.1964 128.699 40.1964 128.819C40.3021 128.867 40.4078 128.914 40.5167 128.963C40.903 129.173 41.153 129.367 41.4334 129.703C41.4334 129.82 41.4334 129.936 41.4334 130.056C41.55 130.056 41.6666 130.056 41.7868 130.056C41.7868 130.173 41.7868 130.29 41.7868 130.41C41.9453 130.481 41.9453 130.481 42.1071 130.553C42.4934 130.763 42.7434 130.957 43.0238 131.293C43.0238 131.41 43.0238 131.527 43.0238 131.647C43.1404 131.647 43.257 131.647 43.3772 131.647C43.3772 131.763 43.3772 131.88 43.3772 132C43.5357 132.071 43.5357 132.071 43.6975 132.144C44.0837 132.353 44.3338 132.547 44.6141 132.884C44.6141 133 44.6141 133.117 44.6141 133.237C44.7308 133.237 44.8474 133.237 44.9676 133.237C44.9676 133.354 44.9676 133.47 44.9676 133.591C45.0733 133.638 45.1789 133.685 45.2878 133.734C45.6741 133.944 45.9241 134.138 46.2045 134.474C46.2045 134.591 46.2045 134.707 46.2045 134.828C46.3211 134.828 46.4378 134.828 46.5579 134.828C46.5579 134.944 46.5579 135.061 46.5579 135.181C46.6588 135.222 46.7598 135.263 46.8637 135.306C47.3608 135.589 47.6536 135.93 48.0268 136.363C48.689 137.118 49.3716 137.839 50.0921 138.538C48.9893 139.641 46.569 139.802 45.0805 140.13C43.9448 140.384 42.8264 140.675 41.7095 141.001C39.3844 141.681 37.0399 142.28 34.6935 142.881C34.0354 143.049 33.3774 143.218 32.7194 143.387C32.5206 143.438 32.5206 143.438 32.3178 143.49C30.5711 143.938 28.8273 144.395 27.0869 144.867C25.837 145.205 24.5871 145.543 23.3318 145.861C23.117 145.915 22.9022 145.97 22.6809 146.026C22.1722 146.137 22.1722 146.137 21.642 146.137C22.2026 143.588 22.9066 141.081 23.6071 138.568C23.839 137.733 24.0622 136.895 24.2837 136.057C24.4368 135.478 24.5927 134.9 24.7489 134.322C25.2608 132.427 25.7682 130.532 26.2585 128.632C26.5945 127.331 26.9531 126.041 27.3403 124.755C27.6189 123.822 27.8576 122.883 28.087 121.937C28.4237 120.566 28.8323 119.215 29.2405 117.864Z" fill="#EC6019"/>
<path d="M71.1202 146.667C80.742 146.667 90.3638 146.667 100.277 146.667C100.009 147.47 99.7843 148.017 99.3605 148.721C99.2507 148.905 99.1409 149.09 99.0278 149.279C98.9152 149.467 98.8027 149.654 98.6868 149.848C97.8952 151.189 97.1307 152.542 96.3896 153.912C95.9062 154.796 95.4088 155.671 94.8986 156.54C94.3142 157.538 93.7585 158.549 93.2088 159.566C92.573 160.739 91.8963 161.887 91.2173 163.035C90.71 163.896 90.2226 164.764 89.7499 165.644C89.4693 166.157 89.1756 166.661 88.8794 167.165C88.2099 168.305 87.5733 169.462 86.9571 170.631C86.8807 170.774 86.8044 170.917 86.7258 171.064C86.6264 171.253 86.6264 171.253 86.5249 171.445C86.3172 171.759 86.3172 171.759 85.787 172.113C85.6973 171.955 85.6076 171.797 85.5151 171.634C85.3922 171.418 85.2694 171.202 85.1465 170.986C85.0828 170.874 85.0191 170.762 84.9536 170.647C84.4859 169.827 83.9996 169.021 83.4954 168.223C83.3131 167.872 83.3131 167.872 83.3131 167.342C83.1965 167.342 83.0799 167.342 82.9597 167.342C82.8695 167.171 82.8695 167.171 82.7775 166.997C82.2762 166.063 81.7533 165.15 81.1926 164.249C80.681 163.427 80.2073 162.596 79.7527 161.742C79.474 161.243 79.1852 160.756 78.8885 160.268C78.7919 160.11 78.6952 159.951 78.5957 159.787C78.3998 159.466 78.203 159.146 78.0051 158.827C77.9149 158.679 77.8246 158.532 77.7316 158.379C77.6085 158.18 77.6085 158.18 77.4829 157.976C77.305 157.623 77.305 157.623 77.305 157.093C77.1884 157.093 77.0718 157.093 76.9516 157.093C76.8569 156.896 76.7621 156.699 76.6645 156.496C76.3875 155.942 76.0898 155.409 75.7678 154.88C75.1386 153.839 74.5262 152.788 73.9144 151.736C73.6984 151.365 73.4824 150.994 73.2663 150.623C73.1251 150.38 73.1251 150.38 72.9811 150.132C72.7973 149.819 72.6069 149.509 72.4108 149.203C72.1805 148.787 72.1805 148.787 72.1805 148.257C72.0639 148.257 71.9472 148.257 71.8271 148.257C71.7088 148.025 71.5911 147.793 71.4737 147.561C71.3753 147.368 71.3753 147.368 71.2749 147.17C71.1202 146.843 71.1202 146.843 71.1202 146.667Z" fill="#EC6019"/>
<path d="M25.5294 71.3894C25.5294 80.8946 25.5294 90.3997 25.5294 100.193C25.2962 100.135 25.0629 100.076 24.8226 100.016C24.8226 99.8996 24.8226 99.7829 24.8226 99.6628C24.7241 99.6432 24.6257 99.6236 24.5243 99.6034C24.0489 99.4669 23.6664 99.2636 23.2343 99.0229C23.0628 98.9275 22.8914 98.8321 22.7148 98.7338C21.8121 98.2217 20.914 97.7021 20.0183 97.1778C19.8366 97.072 19.655 96.9662 19.4678 96.8572C18.5694 96.3324 17.6779 95.802 16.8049 95.2358C16.4894 95.039 16.4894 95.039 15.9871 94.8916C15.9871 94.775 15.9871 94.6584 15.9871 94.5382C15.8833 94.5157 15.7794 94.4932 15.6724 94.47C15.0454 94.2966 14.5049 93.9541 13.944 93.6326C13.8185 93.5615 13.693 93.4904 13.5637 93.4171C12.6642 92.9035 11.7927 92.354 10.9247 91.7889C10.3907 91.4615 9.85734 91.2251 9.27222 91.0041C9.27222 90.8874 9.27222 90.7708 9.27222 90.6506C9.07883 90.5765 9.07883 90.5765 8.88153 90.5009C7.16519 89.7917 5.56792 88.7389 3.96613 87.804C3.381 87.4625 2.79334 87.1261 2.20319 86.7934C1.9273 86.636 1.65143 86.4787 1.37556 86.3213C1.24535 86.249 1.11514 86.1767 0.980981 86.1023C0.672786 85.925 0.376522 85.7273 0.083374 85.5261C0.083374 85.3511 0.083374 85.1762 0.083374 84.996C0.266971 84.9062 0.450569 84.8165 0.63973 84.724C1.86667 84.12 3.06616 83.5065 4.22912 82.785C4.86556 82.412 5.52688 82.0942 6.18897 81.7695C7.25086 81.2444 8.27388 80.6553 9.29811 80.0609C10.8835 79.1437 12.4732 78.2465 14.1227 77.4486C14.5844 77.2241 14.5844 77.2241 15.0408 76.9267C15.457 76.6907 15.457 76.6907 15.9871 76.6907C15.9871 76.574 15.9871 76.4574 15.9871 76.3372C16.1876 76.2388 16.3881 76.1404 16.5946 76.039C17.5573 75.5577 18.4958 75.0342 19.4268 74.4942C19.5673 74.4136 19.7078 74.333 19.8526 74.2499C19.9798 74.1758 20.1069 74.1018 20.2378 74.0255C20.5816 73.8633 20.5816 73.8633 21.1117 73.8633C21.1117 73.7467 21.1117 73.6301 21.1117 73.5099C21.3014 73.4161 21.4912 73.3222 21.6867 73.2255C21.9405 73.0994 22.1943 72.9734 22.4481 72.8473C22.5725 72.7857 22.697 72.7242 22.8253 72.6609C23.4378 72.356 24.0387 72.0428 24.6286 71.6959C25.176 71.3894 25.176 71.3894 25.5294 71.3894Z" fill="#EC6019"/>
<path d="M140.567 116.273C140.683 116.273 140.8 116.273 140.92 116.273C141.386 117.406 141.81 118.544 142.19 119.708C142.297 120.032 142.404 120.356 142.511 120.681C142.568 120.852 142.624 121.024 142.682 121.201C143.013 122.203 143.347 123.203 143.681 124.203C143.817 124.61 143.952 125.017 144.088 125.423C144.3 126.061 144.513 126.697 144.727 127.334C145.061 128.33 145.387 129.327 145.691 130.333C145.999 131.345 146.352 132.337 146.713 133.331C146.983 134.101 147.218 134.88 147.453 135.661C147.645 136.273 147.858 136.875 148.077 137.478C148.433 138.46 148.751 139.448 149.052 140.448C149.286 141.21 149.543 141.962 149.802 142.715C149.932 143.133 149.932 143.133 149.932 143.486C148.784 143.39 147.669 143.236 146.542 143C146.392 142.97 146.241 142.939 146.087 142.908C144.749 142.632 143.415 142.34 142.081 142.047C140.989 141.808 139.896 141.582 138.8 141.366C137.53 141.116 136.265 140.848 135 140.571C133.597 140.263 132.192 139.969 130.782 139.691C129.445 139.426 128.112 139.148 126.778 138.868C125.904 138.684 125.029 138.505 124.151 138.338C123.906 138.29 123.906 138.29 123.656 138.242C123.348 138.183 123.039 138.126 122.731 138.069C121.698 137.871 121.698 137.871 121.305 137.478C121.421 137.347 121.421 137.347 121.539 137.212C121.697 137.032 121.697 137.032 121.858 136.849C121.97 136.721 122.082 136.593 122.198 136.461C122.418 136.208 122.635 135.953 122.848 135.695C122.94 135.584 123.033 135.472 123.128 135.358C123.211 135.256 123.294 135.154 123.38 135.048C123.603 134.828 123.603 134.828 123.956 134.828C124.073 134.536 124.189 134.244 124.31 133.944C124.426 133.944 124.543 133.944 124.663 133.944C124.663 133.827 124.663 133.711 124.663 133.591C124.78 133.591 124.896 133.591 125.016 133.591C125.016 133.474 125.016 133.357 125.016 133.237C125.217 133.027 125.419 132.819 125.628 132.618C126.136 132.125 126.611 131.601 127.093 131.084C127.197 130.973 127.301 130.861 127.408 130.747C127.507 130.641 127.606 130.534 127.708 130.424C127.798 130.328 127.888 130.232 127.98 130.133C128.215 129.879 128.215 129.879 128.374 129.526C128.49 129.526 128.607 129.526 128.727 129.526C128.727 129.41 128.727 129.293 128.727 129.173C128.844 129.173 128.96 129.173 129.081 129.173C129.081 129.056 129.081 128.94 129.081 128.819C129.197 128.819 129.314 128.819 129.434 128.819C129.472 128.725 129.51 128.631 129.549 128.534C129.875 127.958 130.318 127.507 130.77 127.03C131.411 126.387 131.411 126.387 131.908 125.639C132.025 125.639 132.141 125.639 132.261 125.639C132.261 125.522 132.261 125.405 132.261 125.285C132.378 125.285 132.495 125.285 132.615 125.285C132.66 125.184 132.706 125.083 132.753 124.979C132.988 124.541 133.26 124.201 133.587 123.827C133.694 123.703 133.802 123.578 133.913 123.449C134.205 123.165 134.205 123.165 134.559 123.165C134.602 123.066 134.646 122.966 134.691 122.864C134.95 122.389 135.26 122.023 135.619 121.619C135.743 121.477 135.867 121.336 135.994 121.191C136.326 120.868 136.326 120.868 136.679 120.868C136.679 120.751 136.679 120.634 136.679 120.514C136.796 120.514 136.912 120.514 137.033 120.514C137.08 120.409 137.128 120.305 137.178 120.197C137.383 119.813 137.593 119.548 137.892 119.234C137.99 119.13 138.089 119.025 138.19 118.918C138.293 118.81 138.396 118.703 138.501 118.592C138.703 118.38 138.905 118.167 139.107 117.953C139.253 117.799 139.253 117.799 139.402 117.641C139.673 117.345 139.926 117.039 140.177 116.725C140.37 116.501 140.37 116.501 140.567 116.273Z" fill="#EC6019"/>
<path d="M146.045 23.5013C145.763 25.0852 145.345 26.6317 144.929 28.1841C144.856 28.4571 144.784 28.7301 144.711 29.0031C144.303 30.5342 143.888 32.0632 143.46 33.5889C143.112 34.8303 142.773 36.0741 142.433 37.3177C142.399 37.4447 142.364 37.5716 142.328 37.7024C141.894 39.2947 141.466 40.8886 141.053 42.4865C139.883 47.0052 139.883 47.0052 139.263 48.7776C139.095 49.3062 138.985 49.8447 138.876 50.388C138.8 50.7145 138.8 50.7145 138.623 51.0679C138.021 50.9654 137.739 50.7761 137.318 50.339C137.157 50.1736 137.157 50.1736 136.992 50.0049C136.826 49.8313 136.826 49.8313 136.657 49.6542C136.436 49.4256 136.215 49.1973 135.993 48.9695C135.896 48.8679 135.798 48.7663 135.698 48.6616C135.447 48.3982 135.447 48.3982 135.089 48.2405C135.089 48.1239 135.089 48.0073 135.089 47.8871C134.972 47.8871 134.855 47.8871 134.735 47.8871C134.735 47.7705 134.735 47.6539 134.735 47.5337C134.577 47.4626 134.577 47.4626 134.415 47.3901C134.029 47.1804 133.779 46.9866 133.498 46.6502C133.498 46.5335 133.498 46.4169 133.498 46.2967C133.351 46.2366 133.351 46.2366 133.2 46.1753C132.675 45.877 132.311 45.5074 131.908 45.0598C131.908 44.9432 131.908 44.8265 131.908 44.7064C131.616 44.5897 131.325 44.4731 131.024 44.353C131.024 44.2363 131.024 44.1197 131.024 43.9995C130.908 43.9995 130.791 43.9995 130.671 43.9995C130.207 43.5799 130.207 43.5799 129.787 43.116C129.787 42.9994 129.787 42.8827 129.787 42.7626C129.671 42.7626 129.554 42.7626 129.434 42.7626C129.434 42.6459 129.434 42.5293 129.434 42.4092C129.317 42.4092 129.201 42.4092 129.081 42.4092C128.617 41.9895 128.617 41.9895 128.197 41.5256C128.197 41.409 128.197 41.2924 128.197 41.1722C128.095 41.1279 127.993 41.0836 127.888 41.0379C127.437 40.7896 127.142 40.5075 126.783 40.1396C126.652 40.0068 126.521 39.874 126.386 39.7371C126.251 39.5984 126.116 39.4597 125.977 39.3168C125.709 39.0421 125.44 38.7678 125.17 38.494C125.052 38.3722 124.933 38.2505 124.811 38.125C124.472 37.7829 124.472 37.7829 123.956 37.4613C123.956 37.3447 123.956 37.2281 123.956 37.1079C123.858 37.0678 123.759 37.0277 123.658 36.9864C123.132 36.6881 122.769 36.3186 122.366 35.8709C122.366 35.7543 122.366 35.6377 122.366 35.5175C122.264 35.474 122.163 35.4305 122.058 35.3857C121.596 35.1291 121.294 34.8279 120.93 34.4462C120.461 33.942 120.461 33.942 119.892 33.5737C119.892 33.4571 119.892 33.3405 119.892 33.2203C119.775 33.2203 119.659 33.2203 119.538 33.2203C119.538 33.1037 119.538 32.9871 119.538 32.8669C119.422 32.8669 119.305 32.8669 119.185 32.8669C118.898 32.6239 118.898 32.6239 118.655 32.3368C118.655 32.2201 118.655 32.1035 118.655 31.9834C118.538 31.9834 118.422 31.9834 118.301 31.9834C118.301 31.8667 118.301 31.7501 118.301 31.6299C118.185 31.6299 118.068 31.6299 117.948 31.6299C117.948 31.455 117.948 31.2801 117.948 31.0998C119.376 30.5802 120.817 30.1965 122.292 29.8375C123.121 29.6343 123.938 29.4163 124.751 29.156C125.718 28.8468 126.693 28.6006 127.678 28.3608C128.619 28.1313 129.547 27.8989 130.461 27.5767C131.643 27.1614 132.855 26.8663 134.068 26.5559C135.118 26.286 136.16 26.001 137.198 25.6881C138.249 25.3719 139.304 25.0908 140.37 24.8312C141.576 24.5357 142.77 24.2001 143.966 23.8637C144.185 23.8025 144.405 23.7412 144.631 23.6781C144.747 23.6451 144.863 23.6121 144.982 23.5781C145.338 23.5013 145.338 23.5013 146.045 23.5013Z" fill="#EC6019"/>
<path d="M145.868 71.3894C146.218 71.5643 146.218 71.5643 146.575 71.7428C146.795 71.8403 147.016 71.9362 147.238 72.03C147.427 72.1102 147.617 72.1903 147.812 72.2729C147.812 72.3896 147.812 72.5062 147.812 72.6264C147.914 72.6481 148.016 72.6698 148.122 72.6921C148.53 72.8062 148.848 72.9591 149.218 73.1648C149.354 73.2401 149.49 73.3154 149.631 73.393C149.778 73.4753 149.925 73.5576 150.076 73.6424C150.231 73.7283 150.385 73.8142 150.545 73.9026C151.908 74.6613 153.266 75.4292 154.623 76.1991C155.557 76.7289 156.493 77.2532 157.434 77.7707C158.579 78.4002 159.691 79.052 160.785 79.7672C161.462 80.1836 162.171 80.526 162.885 80.8744C163.66 81.2544 164.391 81.6854 165.122 82.1417C166.121 82.7643 167.113 83.35 168.175 83.8598C169.253 84.417 170.28 85.0697 171.314 85.7028C170.541 86.3781 169.695 86.8345 168.796 87.3153C167.616 87.9542 166.448 88.6065 165.295 89.2922C164.325 89.8686 163.35 90.4281 162.354 90.9592C162.059 91.1202 161.771 91.2937 161.487 91.4741C161.065 91.7109 161.065 91.7109 160.535 91.7109C160.535 91.8275 160.535 91.9441 160.535 92.0643C160.243 92.1226 159.952 92.1809 159.651 92.241C159.651 92.3576 159.651 92.4743 159.651 92.5944C159.427 92.7136 159.203 92.831 158.978 92.9479C158.853 93.0135 158.727 93.0791 158.599 93.1466C158.238 93.3013 158.238 93.3013 157.708 93.3013C157.708 93.4179 157.708 93.5345 157.708 93.6547C157.403 93.8292 157.097 94.0019 156.791 94.1738C156.621 94.2701 156.451 94.3665 156.275 94.4657C155.798 94.6983 155.403 94.8162 154.88 94.8916C154.88 95.0083 154.88 95.1249 154.88 95.2451C154.76 95.3093 154.641 95.3735 154.517 95.4397C153.685 95.889 152.861 96.3444 152.053 96.8354C151.315 97.2826 150.566 97.7005 149.807 98.1097C149.337 98.3654 148.869 98.6243 148.401 98.8855C148.257 98.9662 148.112 99.0469 147.964 99.1301C147.673 99.2926 147.383 99.4554 147.093 99.6184C146.893 99.7299 146.893 99.7299 146.689 99.8436C146.57 99.9109 146.45 99.9782 146.326 100.048C146.045 100.193 146.045 100.193 145.868 100.193C145.868 90.6877 145.868 81.1826 145.868 71.3894Z" fill="#EC6019"/>
</svg>
