<svg width="376" height="99" viewBox="0 0 376 99" fill="none" xmlns="http://www.w3.org/2000/svg">
<path d="M351.086 27.5722C351.086 27.6355 351.086 27.6988 351.086 27.764C351.14 27.7739 351.193 27.7838 351.248 27.794C351.514 27.8735 351.718 27.9887 351.946 28.1476C351.946 28.2109 351.946 28.2742 351.946 28.3394C352.026 28.378 352.026 28.378 352.108 28.4173C352.349 28.5417 352.581 28.6679 352.806 28.8189C352.806 28.8822 352.806 28.9455 352.806 29.0107C352.862 29.0362 352.917 29.0617 352.975 29.0879C353.715 29.4847 354.464 30.2582 354.813 31.0246C354.876 31.0246 354.939 31.0246 355.004 31.0246C355.004 31.0879 355.004 31.1512 355.004 31.2164C355.067 31.2164 355.13 31.2164 355.195 31.2164C355.318 31.3565 355.318 31.3565 355.446 31.5401C355.488 31.6002 355.531 31.6603 355.575 31.7222C355.673 31.8877 355.673 31.8877 355.673 32.0795C355.736 32.0795 355.799 32.0795 355.864 32.0795C355.895 32.1428 355.927 32.2061 355.959 32.2713C355.991 29.9611 356.022 27.6509 356.055 25.2706C362.487 25.2706 368.92 25.2706 375.547 25.2706C375.547 43.6893 375.547 62.108 375.547 81.0848C369.114 81.0848 362.682 81.0848 356.055 81.0848C356.023 78.7745 355.992 76.4643 355.959 74.084C355.77 74.3372 355.581 74.5904 355.386 74.8512C355.323 74.8512 355.26 74.8512 355.195 74.8512C355.132 75.0095 355.069 75.1677 355.004 75.3307C354.941 75.3307 354.878 75.3307 354.813 75.3307C354.788 75.3872 354.762 75.4437 354.736 75.5018C354.618 75.7221 354.493 75.8686 354.317 76.0455C354.258 76.1048 354.199 76.1642 354.139 76.2253C354.077 76.2861 354.016 76.3469 353.953 76.4096C353.892 76.4719 353.83 76.5342 353.767 76.5984C353.708 76.6573 353.649 76.7161 353.589 76.7767C353.508 76.8574 353.508 76.8574 353.425 76.9398C353.284 77.0569 353.284 77.0569 353.093 77.0569C353.093 77.1202 353.093 77.1835 353.093 77.2487C352.935 77.312 352.778 77.3753 352.615 77.4405C352.615 77.5038 352.615 77.5671 352.615 77.6323C352.476 77.756 352.476 77.756 352.293 77.8841C352.233 77.9269 352.173 77.9696 352.111 78.0137C351.946 78.1118 351.946 78.1118 351.755 78.1118C351.755 78.1751 351.755 78.2384 351.755 78.3036C351.336 78.5914 351.336 78.5914 351.086 78.5914C351.086 78.6546 351.086 78.7179 351.086 78.7832C347.411 80.8787 343.797 81.7873 339.567 81.804C339.408 81.8055 339.408 81.8055 339.245 81.807C337.249 81.8217 335.239 81.6559 333.326 81.0428C333.232 81.0138 333.137 80.9847 333.039 80.9548C332.38 80.7486 331.744 80.5112 331.117 80.2217C330.993 80.1685 330.87 80.1157 330.746 80.0632C329.986 79.7388 329.253 79.3906 328.537 78.975C328.537 78.9117 328.537 78.8484 328.537 78.7832C328.456 78.7679 328.456 78.7679 328.373 78.7524C327.943 78.624 327.589 78.3237 327.223 78.0699C327.138 78.0125 327.053 77.955 326.966 77.8959C326.886 77.8407 326.806 77.7855 326.723 77.7286C326.613 77.6527 326.613 77.6527 326.5 77.5752C326.447 77.5308 326.394 77.4863 326.339 77.4405C326.339 77.3773 326.339 77.314 326.339 77.2487C326.28 77.2191 326.221 77.1894 326.16 77.1588C326.029 77.0929 325.897 77.027 325.766 76.961C325.766 76.8977 325.766 76.8344 325.766 76.7692C325.709 76.7415 325.652 76.7139 325.593 76.6853C325.384 76.5774 325.384 76.5774 325.097 76.3856C325.097 76.3223 325.097 76.259 325.097 76.1938C325.003 76.1622 324.908 76.1305 324.811 76.0979C324.811 76.0346 324.811 75.9713 324.811 75.9061C324.748 75.9061 324.684 75.9061 324.619 75.9061C324.619 75.8428 324.619 75.7795 324.619 75.7143C324.556 75.7143 324.493 75.7143 324.428 75.7143C324.428 75.651 324.428 75.5877 324.428 75.5225C324.365 75.5225 324.302 75.5225 324.237 75.5225C324.237 75.4592 324.237 75.3959 324.237 75.3307C324.143 75.2991 324.048 75.2674 323.951 75.2348C323.951 75.1715 323.951 75.1082 323.951 75.043C323.888 75.043 323.825 75.043 323.76 75.043C323.606 74.8767 323.46 74.7037 323.318 74.5276C323.24 74.4319 323.161 74.3362 323.081 74.2376C322.9 73.9881 322.9 73.9881 322.9 73.7963C322.837 73.7963 322.773 73.7963 322.709 73.7963C322.585 73.6562 322.585 73.6562 322.458 73.4727C322.415 73.4126 322.372 73.3525 322.329 73.2906C322.231 73.125 322.231 73.125 322.231 72.9332C322.168 72.9332 322.105 72.9332 322.04 72.9332C321.517 72.2984 321.127 71.5147 320.71 70.8062C320.618 70.6503 320.524 70.4954 320.43 70.3405C319.985 69.5997 319.622 68.8297 319.264 68.0444C319.174 67.8524 319.078 67.6646 318.98 67.4762C318.764 67.0455 318.61 66.5987 318.457 66.1423C318.402 65.9818 318.347 65.8213 318.292 65.6609C318.265 65.5798 318.237 65.4988 318.209 65.4153C318.12 65.1583 318.026 64.9034 317.931 64.6483C316.668 61.1765 316.146 57.3404 316.116 53.6572C316.113 53.5281 316.111 53.399 316.108 53.2698C316.103 52.9191 316.108 52.5693 316.116 52.2187C316.117 52.1283 316.119 52.038 316.121 51.9449C316.153 50.3896 316.266 48.8659 316.498 47.3277C316.511 47.2384 316.524 47.149 316.538 47.0569C316.861 44.9086 317.308 42.6748 318.167 40.6709C318.291 40.3801 318.402 40.0882 318.508 39.7906C318.801 38.9755 319.158 38.2194 319.555 37.45C319.643 37.2662 319.731 37.0824 319.818 36.8986C320.182 36.1653 320.618 35.4731 321.052 34.7796C321.14 34.6372 321.227 34.4939 321.312 34.3499C321.354 34.2796 321.396 34.2093 321.439 34.1369C321.477 34.0733 321.514 34.0096 321.553 33.9441C321.604 33.8756 321.604 33.8756 321.657 33.8058C321.721 33.8058 321.784 33.8058 321.849 33.8058C321.874 33.7346 321.9 33.6633 321.926 33.59C322.035 33.3367 322.144 33.1483 322.326 32.9427C322.389 32.9427 322.452 32.9427 322.517 32.9427C322.539 32.8754 322.561 32.8082 322.583 32.7389C322.741 32.3921 322.927 32.167 323.186 31.8877C323.249 31.8877 323.312 31.8877 323.377 31.8877C323.403 31.8321 323.428 31.7765 323.454 31.7192C323.777 31.1133 324.346 30.5531 324.906 30.1615C324.969 30.1615 325.032 30.1615 325.097 30.1615C325.129 30.0666 325.16 29.9717 325.193 29.8738C325.363 29.7199 325.363 29.7199 325.569 29.5681C325.637 29.5173 325.705 29.4665 325.775 29.4142C325.957 29.2984 325.957 29.2984 326.148 29.2984C326.18 29.2035 326.211 29.1085 326.244 29.0107C326.757 28.6271 326.757 28.6271 327.008 28.6271C327.008 28.5638 327.008 28.5005 327.008 28.4353C327.204 28.2896 327.399 28.1575 327.605 28.0277C327.666 27.9891 327.727 27.9505 327.789 27.9107C328.252 27.6203 328.727 27.3672 329.22 27.1305C329.485 27.0003 329.738 26.8571 329.994 26.7091C330.598 26.3755 331.231 26.1427 331.88 25.9138C332.06 25.8504 332.239 25.7853 332.418 25.7201C334.176 25.1017 335.957 24.7943 337.805 24.5993C337.922 24.5854 337.922 24.5854 338.042 24.5713C342.664 24.0475 347.11 25.2634 351.086 27.5722ZM344.016 45.0261C343.926 45.0764 343.835 45.1268 343.742 45.1786C343.675 45.2232 343.607 45.2679 343.538 45.3138C343.538 45.3771 343.538 45.4404 343.538 45.5056C343.481 45.5325 343.425 45.5593 343.366 45.5869C341.666 46.4808 340.847 48.5725 340.292 50.3014C340.219 50.5557 340.156 50.8094 340.098 51.0679C340.069 51.1969 340.069 51.1969 340.039 51.3286C339.525 54.034 340.035 56.9572 341.436 59.3153C341.504 59.4431 341.571 59.571 341.639 59.6989C341.829 60.0036 342.037 60.2191 342.296 60.4661C342.383 60.5711 342.468 60.677 342.553 60.7838C342.626 60.8689 342.699 60.9539 342.774 61.0415C342.837 61.0415 342.9 61.0415 342.965 61.0415C342.965 61.1048 342.965 61.1681 342.965 61.2333C343.217 61.4633 343.217 61.4633 343.538 61.521C343.538 61.5843 343.538 61.6476 343.538 61.7128C343.633 61.7128 343.727 61.7128 343.825 61.7128C343.825 61.7761 343.825 61.8394 343.825 61.9046C344.663 62.402 345.449 62.7393 346.405 62.9595C346.495 62.9812 346.586 63.0028 346.68 63.0251C348.68 63.4305 350.741 63.1359 352.45 61.9979C354.601 60.436 355.716 58.0591 356.159 55.4808C356.266 54.7553 356.28 54.0358 356.276 53.3036C356.276 53.2027 356.276 53.2027 356.275 53.0999C356.271 52.0467 356.206 51.0392 355.959 50.013C355.919 49.8375 355.919 49.8375 355.879 49.6586C355.614 48.617 355.162 47.6208 354.526 46.7523C354.463 46.7523 354.4 46.7523 354.335 46.7523C354.335 46.689 354.335 46.6258 354.335 46.5605C354.272 46.5605 354.209 46.5605 354.144 46.5605C354.118 46.4992 354.093 46.4379 354.066 46.3747C353.964 46.1452 353.964 46.1452 353.666 46.081C353.666 46.0177 353.666 45.9544 353.666 45.8892C353.524 45.7588 353.524 45.7588 353.344 45.6375C353.284 45.5947 353.224 45.552 353.162 45.5079C353.002 45.3934 353.002 45.3934 352.806 45.4097C352.806 45.3464 352.806 45.2831 352.806 45.2179C349.974 43.7632 346.853 43.2949 344.016 45.0261Z" fill="#EC6019"/>
<path d="M40.076 12.3241C40.2642 12.3988 40.4529 12.468 40.6441 12.5343C41.204 12.7555 41.7309 13.066 42.2617 13.3491C42.3366 13.3889 42.4115 13.4288 42.4886 13.4699C42.6718 13.5674 42.8549 13.665 43.038 13.7627C43.038 13.8259 43.038 13.8892 43.038 13.9545C43.0952 13.9683 43.1523 13.9821 43.2112 13.9964C43.3783 14.0395 43.5432 14.0915 43.7069 14.1463C43.7069 14.2095 43.7069 14.2728 43.7069 14.3381C43.7877 14.3598 43.8685 14.3816 43.9517 14.404C44.3283 14.5483 44.6516 14.7338 44.949 15.0094C44.949 15.0727 44.949 15.1359 44.949 15.2012C45.0436 15.2012 45.1382 15.2012 45.2357 15.2012C45.2357 15.2645 45.2357 15.3277 45.2357 15.393C45.2948 15.4226 45.3539 15.4523 45.4148 15.4829C45.5462 15.5488 45.6776 15.6147 45.809 15.6807C45.809 15.744 45.809 15.8073 45.809 15.8725C45.9035 15.8725 45.9981 15.8725 46.0956 15.8725C46.0956 15.9358 46.0956 15.9991 46.0956 16.0643C46.1587 16.0643 46.2217 16.0643 46.2867 16.0643C46.2867 16.1276 46.2867 16.1909 46.2867 16.2561C46.3404 16.2798 46.3941 16.3035 46.4494 16.328C46.7062 16.4683 46.9043 16.6366 47.1227 16.8315C47.1991 16.8987 47.2755 16.966 47.3542 17.0353C47.5288 17.2151 47.5288 17.2151 47.5288 17.4069C47.6234 17.4385 47.718 17.4702 47.8155 17.5028C47.9898 17.6732 47.9898 17.6732 48.1678 17.8804C48.2273 17.9485 48.2868 18.0166 48.3481 18.0868C48.4843 18.27 48.4843 18.27 48.4843 18.4618C48.5474 18.4618 48.6104 18.4618 48.6754 18.4618C48.6754 18.5251 48.6754 18.5884 48.6754 18.6536C48.7385 18.6536 48.8015 18.6536 48.8665 18.6536C48.9897 18.7937 48.9897 18.7937 49.1173 18.9772C49.1599 19.0373 49.2026 19.0974 49.2465 19.1593C49.3442 19.3249 49.3442 19.3249 49.3442 19.5167C49.4073 19.5167 49.4704 19.5167 49.5353 19.5167C49.6797 19.7178 49.8118 19.9177 49.9414 20.1281C49.9992 20.2204 49.9992 20.2204 50.0582 20.3146C50.1712 20.4958 50.2833 20.6775 50.3953 20.8593C50.4482 20.9436 50.5012 21.0279 50.5558 21.1148C52.1179 23.6487 52.9828 26.4998 53.2797 29.4544C53.2877 29.5333 53.2957 29.6121 53.304 29.6934C53.3481 30.181 53.3608 30.6634 53.3593 31.153C53.3588 31.3329 53.3588 31.3329 53.3584 31.5165C53.358 31.6074 53.3577 31.6983 53.3573 31.792C51.1541 31.7942 48.951 31.7959 46.7478 31.7969C45.7242 31.7974 44.7006 31.7981 43.677 31.7992C43.3771 31.7995 43.0773 31.7998 42.7775 31.8001C42.5789 31.8003 42.3804 31.8005 42.1818 31.8007C41.1107 31.8019 40.0396 31.8016 38.9684 31.7972C38.6865 31.796 38.4046 31.7949 38.1227 31.7938C37.9393 31.7931 37.756 31.7924 37.5726 31.7916C36.542 31.7875 35.5131 31.7934 34.483 31.8234C33.995 31.8376 33.507 31.8443 33.0189 31.8506C32.8055 31.8551 32.5921 31.8629 32.3789 31.8742C31.1085 31.9414 31.1085 31.9414 30.6167 31.6961C30.1581 31.2465 29.9077 30.6702 29.6617 30.0855C29.4289 29.5728 29.0751 29.1301 28.6102 28.819C28.6102 28.7558 28.6102 28.6925 28.6102 28.6272C28.5472 28.6035 28.4841 28.5798 28.4191 28.5553C28.1968 28.4624 27.9947 28.3629 27.7831 28.2496C26.3758 27.5415 24.622 27.4499 23.1419 27.9305C22.8538 28.0626 22.6433 28.2344 22.3996 28.4354C22.3365 28.4354 22.2734 28.4354 22.2085 28.4354C22.1816 28.4916 22.1548 28.5477 22.1271 28.6055C22.0255 28.8032 21.9134 28.9819 21.7904 29.1667C21.3365 29.8968 21.0075 30.6308 21.1574 31.5043C21.3555 32.1322 21.6067 32.6229 22.0174 33.1346C22.0174 33.1979 22.0174 33.2612 22.0174 33.3264C22.0804 33.3264 22.1435 33.3264 22.2085 33.3264C22.3533 33.4807 22.3533 33.4807 22.519 33.686C22.7321 33.9398 22.9246 34.1457 23.2058 34.3213C23.2866 34.3728 23.3674 34.4242 23.4506 34.4772C23.4506 34.5405 23.4506 34.6038 23.4506 34.669C23.5777 34.7046 23.5777 34.7046 23.7074 34.7409C24.0239 34.8608 24.0239 34.8608 24.2385 35.0372C24.5415 35.2757 24.8616 35.4426 25.2063 35.61C25.2737 35.6432 25.3411 35.6764 25.4106 35.7106C25.6168 35.8117 25.8235 35.9118 26.0304 36.0116C26.0894 36.0402 26.1483 36.0688 26.2091 36.0982C27.8351 36.8839 29.5031 37.5754 31.19 38.2173C31.3166 38.2659 31.4431 38.3144 31.5696 38.363C32.3438 38.6587 33.1237 38.9353 33.9065 39.2072C34.5168 39.4207 35.1189 39.6514 35.7198 39.8899C36.2088 40.083 36.7012 40.2623 37.1976 40.435C37.7513 40.628 38.2938 40.8364 38.8328 41.0681C39.0994 41.1812 39.3678 41.2885 39.6373 41.3943C40.3686 41.6822 41.0808 42.0028 41.7893 42.3428C42.0035 42.4448 42.2186 42.5447 42.4338 42.6445C43.3641 43.0776 44.2578 43.5424 45.1401 44.0672C45.3627 44.1958 45.5858 44.3234 45.809 44.4508C45.809 44.5141 45.809 44.5774 45.809 44.6426C45.8598 44.6503 45.9107 44.658 45.9631 44.6659C46.2751 44.7653 46.5187 44.9452 46.7824 45.1341C46.8374 45.1731 46.8925 45.2121 46.9493 45.2523C47.6769 45.7707 48.359 46.3208 49.0177 46.9255C49.2267 47.116 49.4396 47.3003 49.6548 47.4837C49.9976 47.7837 50.3255 48.1028 50.5864 48.4787C50.5864 48.542 50.5864 48.6053 50.5864 48.6705C50.6494 48.6705 50.7125 48.6705 50.7775 48.6705C50.9516 48.8827 51.1136 49.0949 51.2731 49.3178C51.3203 49.3831 51.3674 49.4484 51.4159 49.5157C51.8152 50.0761 52.1714 50.6531 52.4973 51.2598C52.5583 51.3705 52.5583 51.3705 52.6205 51.4834C54.4925 55.0411 54.7485 59.3207 54.2172 63.2474C54.2064 63.3297 54.1956 63.4119 54.1845 63.4967C53.7445 66.6911 52.4084 69.9207 50.3953 72.4538C50.3322 72.4538 50.2692 72.4538 50.2042 72.4538C50.1825 72.5033 50.1608 72.5527 50.1385 72.6037C49.967 72.9233 49.7743 73.2351 49.5353 73.5087C49.4723 73.5087 49.4092 73.5087 49.3442 73.5087C49.3127 73.6037 49.2812 73.6986 49.2487 73.7964C49.1856 73.7964 49.1226 73.7964 49.0576 73.7964C49.0576 73.8597 49.0576 73.923 49.0576 73.9882C48.9945 73.9882 48.9315 73.9882 48.8665 73.9882C48.8665 74.0515 48.8665 74.1148 48.8665 74.18C48.8034 74.18 48.7404 74.18 48.6754 74.18C48.637 74.272 48.637 74.272 48.5978 74.3658C48.4843 74.5636 48.4843 74.5636 48.1977 74.6595C48.1977 74.7228 48.1977 74.7861 48.1977 74.8513C48.1346 74.8513 48.0715 74.8513 48.0066 74.8513C48.0066 74.9146 48.0066 74.9779 48.0066 75.0431C47.795 75.2245 47.5827 75.3957 47.3616 75.5646C47.301 75.6116 47.2404 75.6587 47.178 75.7071C47.0607 75.798 46.9431 75.8885 46.8251 75.9785C46.6978 76.076 46.5719 76.1753 46.4464 76.2752C46.2867 76.3857 46.2867 76.3857 46.0956 76.3857C46.0956 76.449 46.0956 76.5123 46.0956 76.5776C46.001 76.5776 45.9064 76.5776 45.809 76.5776C45.809 76.6408 45.809 76.7041 45.809 76.7693C45.6828 76.801 45.5567 76.8326 45.4268 76.8652C45.4268 76.9285 45.4268 76.9918 45.4268 77.0571C45.2345 77.1915 45.2345 77.1915 44.9789 77.3388C44.8542 77.4113 44.8542 77.4113 44.7269 77.4852C44.6426 77.5338 44.5582 77.5824 44.4713 77.6325C44.3879 77.686 44.3045 77.7395 44.2186 77.7947C43.9935 77.9202 43.9935 77.9202 43.7069 77.9202C43.7069 77.9835 43.7069 78.0467 43.7069 78.112C43.2333 78.3365 42.7593 78.5605 42.285 78.7837C42.1213 78.8609 41.9578 78.9387 41.7944 79.0166C41.1116 79.3372 40.4104 79.6026 39.7023 79.8606C39.51 79.9314 39.3188 80.0046 39.1276 80.0783C37.9435 80.5264 36.7234 80.8092 35.4897 81.0849C35.3837 81.1092 35.2777 81.1335 35.1684 81.1585C30.3155 82.2445 24.6607 82.2749 19.834 81.0389C19.609 80.9842 19.3832 80.9376 19.1561 80.892C16.9518 80.4394 14.81 79.6541 12.779 78.6874C12.7096 78.6544 12.6401 78.6215 12.5685 78.5876C12.1402 78.3829 11.7212 78.1674 11.31 77.9295C11 77.7533 10.6802 77.5982 10.3605 77.4407C10.3605 77.3774 10.3605 77.3141 10.3605 77.2489C10.3044 77.238 10.2484 77.2271 10.1906 77.2159C9.96172 77.1481 9.82603 77.0585 9.63787 76.9132C9.42131 76.7467 9.28795 76.6663 9.02277 76.5776C9.02277 76.5143 9.02277 76.451 9.02277 76.3857C8.95737 76.364 8.89197 76.3422 8.82459 76.3198C8.47383 76.1619 8.1959 75.9508 7.89411 75.7144C7.83702 75.6712 7.77993 75.6279 7.72111 75.5833C7.57775 75.4722 7.4398 75.354 7.3029 75.2349C7.3029 75.1716 7.3029 75.1084 7.3029 75.0431C7.23984 75.0431 7.17678 75.0431 7.1118 75.0431C7.1118 74.9798 7.1118 74.9165 7.1118 74.8513C7.05641 74.8269 7.00101 74.8024 6.94394 74.7772C6.70762 74.6475 6.54845 74.5025 6.35787 74.3119C6.29012 74.2442 6.22238 74.1764 6.15259 74.1066C6.08287 74.0359 6.01316 73.9652 5.94133 73.8923C5.87014 73.8216 5.79895 73.7509 5.7256 73.6781C5.65835 73.6103 5.5911 73.5426 5.52182 73.4728C5.42939 73.3797 5.42939 73.3797 5.33511 73.2847C5.20083 73.1251 5.20083 73.1251 5.20083 72.9333C5.10624 72.9017 5.01165 72.87 4.91419 72.8374C4.91419 72.7741 4.91419 72.7108 4.91419 72.6456C4.85113 72.6456 4.78806 72.6456 4.72309 72.6456C4.55308 72.4374 4.39518 72.2289 4.23938 72.0103C4.16922 71.9129 4.16922 71.9129 4.09764 71.8135C3.64459 71.1789 3.22127 70.5283 2.81212 69.8645C2.72713 69.7297 2.72713 69.7297 2.64043 69.5922C1.917 68.4048 1.31632 67.0695 0.90115 65.7408C0.863214 65.6222 0.825278 65.5037 0.786193 65.3815C0.168987 63.3643 -0.0330611 61.3224 0.0412133 59.2195C0.131334 59.2176 0.221454 59.2157 0.314306 59.2138C0.649994 59.2063 0.985643 59.198 1.3213 59.1891C1.46632 59.1854 1.61136 59.1821 1.7564 59.1791C1.96539 59.1747 2.17432 59.1691 2.38327 59.1633C2.50886 59.1603 2.63446 59.1573 2.76386 59.1542C3.08408 59.125 3.28316 59.0524 3.57651 58.9318C4.07232 58.8568 4.54926 58.8238 5.05149 58.8235C5.11814 58.8234 5.1848 58.8232 5.25347 58.823C5.47256 58.8226 5.69164 58.8229 5.91073 58.8232C6.0668 58.8231 6.22288 58.823 6.37896 58.8229C6.70713 58.8228 7.03529 58.823 7.36346 58.8234C7.77348 58.824 8.18349 58.8237 8.59351 58.8231C10.2547 58.8212 11.9131 58.8358 13.5733 58.8935C14.548 58.9268 15.5195 58.9342 16.4946 58.921C16.6178 58.9195 16.741 58.9181 16.868 58.9166C17.3648 58.9106 17.8616 58.9046 18.3583 58.8937C18.7304 58.8857 19.1024 58.8823 19.4745 58.879C19.5863 58.8757 19.698 58.8725 19.8132 58.8691C20.323 58.8674 20.6766 58.8704 21.0775 59.208C21.3048 59.4407 21.5025 59.6875 21.677 59.9628C21.7242 60.0355 21.7713 60.1081 21.8199 60.183C21.9218 60.3703 21.9218 60.3703 21.9218 60.5621C21.9849 60.5621 22.0479 60.5621 22.1129 60.5621C22.2678 60.7232 22.2678 60.7232 22.4414 60.9338C22.6465 61.1819 22.7978 61.3401 23.0684 61.5212C23.0684 61.5844 23.0684 61.6477 23.0684 61.713C23.1217 61.7251 23.1751 61.7372 23.23 61.7497C23.4688 61.8137 23.6919 61.8989 23.9224 61.9887C25.7585 62.6548 27.5891 62.7178 29.3936 61.9062C29.7792 61.7174 30.0926 61.5087 30.4256 61.2335C30.4887 61.2335 30.5518 61.2335 30.6167 61.2335C30.6167 61.1702 30.6167 61.1069 30.6167 61.0416C30.6798 61.0416 30.7429 61.0416 30.8078 61.0416C30.8315 60.9744 30.8551 60.9072 30.8795 60.8379C31.0143 60.5266 31.1938 60.2688 31.3811 59.9867C31.6411 59.4279 31.6548 58.8696 31.6678 58.2605C31.6728 58.107 31.6728 58.107 31.6779 57.9504C31.6599 57.6209 31.6252 57.4053 31.4767 57.1097C30.9211 56.6554 30.267 56.3607 29.5885 56.1346C29.1605 55.9749 28.7517 55.7647 28.34 55.5671C27.44 55.1447 26.5098 54.7849 25.5885 54.4125C25.4877 54.3714 25.387 54.3302 25.2832 54.2878C24.7485 54.0719 24.2171 53.8821 23.6632 53.723C23.3588 53.629 23.0728 53.4986 22.7818 53.3696C22.5265 53.2732 22.2691 53.1835 22.0114 53.0939C21.8682 53.0436 21.725 52.9933 21.5818 52.9429C21.5108 52.918 21.4397 52.8931 21.3665 52.8675C21.0537 52.7578 20.7412 52.6474 20.4289 52.5365C20.3271 52.5005 20.2254 52.4645 20.1206 52.4275C19.9103 52.3486 19.7022 52.2637 19.4962 52.1742C19.1249 52.0159 18.75 51.8824 18.3686 51.7513C17.7843 51.5477 17.2124 51.3265 16.6435 51.0822C16.3829 50.9733 16.1205 50.8754 15.8545 50.7803C14.8366 50.4152 13.8542 49.9667 12.8746 49.5096C12.8163 49.4824 12.758 49.4552 12.698 49.4272C10.7634 48.523 8.97616 47.4699 7.20735 46.273C7.11276 46.2097 7.01817 46.1464 6.92071 46.0812C6.92071 46.0179 6.92071 45.9546 6.92071 45.8894C6.8505 45.8651 6.7803 45.8409 6.70796 45.8159C6.4251 45.6896 6.25069 45.549 6.02494 45.3379C5.7533 45.0868 5.47996 44.8423 5.19486 44.6067C5.10224 44.5236 5.00962 44.4405 4.91419 44.3549C4.91419 44.2916 4.91419 44.2284 4.91419 44.1631C4.85113 44.1631 4.78806 44.1631 4.72309 44.1631C4.72309 44.0998 4.72309 44.0366 4.72309 43.9713C4.66003 43.9713 4.59697 43.9713 4.53199 43.9713C4.50835 43.8962 4.4847 43.821 4.46033 43.7436C4.3697 43.4827 4.3697 43.4827 4.17033 43.4147C3.8748 43.2546 3.70738 43.014 3.51082 42.7486C3.44858 42.6656 3.44858 42.6656 3.38509 42.5809C2.32737 41.1516 1.47575 39.6186 0.90115 37.9296C0.860997 37.8123 0.820844 37.695 0.779475 37.5741C0.15004 35.6409 -0.020398 33.6515 0.0018835 31.6284C0.00541687 31.2973 0.00580231 30.9663 0.00575582 30.6352C0.0102469 29.1872 0.0990883 27.8083 0.447294 26.3976C0.467879 26.3131 0.488463 26.2287 0.509672 26.1416C0.8603 24.7352 1.28637 23.3957 1.95218 22.106C1.98975 22.0322 2.02732 21.9584 2.06602 21.8824C2.65578 20.7329 3.30125 19.6324 4.1498 18.6536C4.21286 18.6536 4.27592 18.6536 4.3409 18.6536C4.3643 18.5997 4.3877 18.5458 4.41181 18.4903C4.91231 17.5729 5.90153 16.6975 6.72961 16.0643C6.79267 16.0643 6.85573 16.0643 6.92071 16.0643C6.92071 16.001 6.92071 15.9377 6.92071 15.8725C7.14232 15.6947 7.36447 15.5276 7.59552 15.363C7.65827 15.3176 7.72103 15.2721 7.78568 15.2253C7.91225 15.1338 8.03907 15.0427 8.16615 14.9519C8.28939 14.8637 8.41223 14.775 8.53463 14.6856C9.02529 14.3283 9.5382 14.0473 10.0738 13.7627C10.2041 13.6907 10.3344 13.6187 10.4646 13.5465C12.7518 12.2922 15.1493 11.4113 17.6875 10.8399C17.9788 10.7739 18.2692 10.7035 18.5597 10.6339C25.1133 9.1355 33.9814 9.10751 40.076 12.3241Z" fill="#EC6019"/>
<path d="M114.508 22.3936C114.68 22.4586 114.851 22.5234 115.023 22.5881C116.128 23.0089 117.189 23.4712 118.235 24.0239C118.426 24.1203 118.617 24.2163 118.808 24.3116C118.808 24.3749 118.808 24.4382 118.808 24.5034C118.909 24.5168 118.909 24.5168 119.013 24.5304C119.336 24.612 119.553 24.7502 119.829 24.935C120.17 25.1652 120.17 25.1652 120.528 25.3666C120.528 25.4298 120.528 25.4931 120.528 25.5584C120.631 25.5951 120.631 25.5951 120.736 25.6325C121.024 25.7582 121.244 25.9091 121.495 26.0978C121.632 26.2 121.632 26.2 121.771 26.3042C121.866 26.3745 121.96 26.4449 122.057 26.5174C122.327 26.7109 122.597 26.9042 122.868 27.0969C123.13 27.302 123.353 27.5261 123.585 27.7641C123.879 28.0433 124.177 28.3182 124.474 28.5938C125.024 29.1064 125.566 29.6267 126.064 30.1916C126.12 30.2545 126.176 30.3174 126.234 30.3822C126.356 30.5452 126.356 30.5452 126.356 30.737C126.419 30.737 126.482 30.737 126.547 30.737C126.547 30.8319 126.547 30.9269 126.547 31.0247C126.627 31.0514 126.627 31.0514 126.709 31.0786C127.028 31.278 127.221 31.5625 127.407 31.8878C127.407 31.9511 127.407 32.0144 127.407 32.0796C127.47 32.0796 127.533 32.0796 127.598 32.0796C127.74 32.252 127.74 32.252 127.904 32.4939C127.964 32.5823 128.024 32.6706 128.086 32.7616C128.182 32.9047 128.182 32.9047 128.279 33.0506C128.344 33.1471 128.409 33.2435 128.476 33.3429C128.889 33.9608 129.277 34.5831 129.634 35.2353C129.798 35.5351 129.972 35.8267 130.148 36.1194C130.418 36.581 130.631 37.0489 130.824 37.5474C130.917 37.7721 131.016 37.9829 131.127 38.1989C131.332 38.6049 131.498 39.0207 131.659 39.446C131.688 39.5219 131.717 39.5978 131.747 39.6761C131.804 39.8261 131.861 39.9762 131.918 40.1264C131.98 40.2922 132.044 40.4577 132.108 40.623C132.38 41.3407 132.57 42.077 132.758 42.8205C132.791 42.9491 132.824 43.0777 132.857 43.2063C134.769 50.7143 134.208 59.1877 130.369 66.0284C130.276 66.2042 130.182 66.38 130.089 66.5559C129.558 67.5249 128.987 68.464 128.369 69.3789C128.324 69.4465 128.278 69.5141 128.232 69.5837C128.121 69.7449 128.004 69.9011 127.885 70.0562C127.822 70.0562 127.759 70.0562 127.694 70.0562C127.668 70.1097 127.643 70.1631 127.616 70.2181C127.492 70.4602 127.367 70.6928 127.216 70.9194C127.153 70.9194 127.09 70.9194 127.025 70.9194C127.003 70.9886 126.982 71.0578 126.959 71.1291C126.808 71.4542 126.614 71.6314 126.356 71.8784C126.27 71.9833 126.184 72.0892 126.1 72.196C126.027 72.2811 125.954 72.3661 125.879 72.4538C125.816 72.4538 125.752 72.4538 125.687 72.4538C125.666 72.5072 125.644 72.5606 125.622 72.6156C125.46 72.9008 125.261 73.0982 125.019 73.3169C124.956 73.3169 124.893 73.3169 124.828 73.3169C124.807 73.3698 124.786 73.4227 124.765 73.4772C124.592 73.7777 124.367 73.9723 124.111 74.2039C124.063 74.248 124.016 74.292 123.966 74.3373C123.61 74.6595 123.61 74.6595 123.394 74.6595C123.394 74.7228 123.394 74.7861 123.394 74.8513C123.317 74.877 123.241 74.9027 123.161 74.9292C123.081 74.9668 123 75.0044 122.917 75.0431C122.885 75.138 122.854 75.233 122.821 75.3308C122.651 75.4847 122.651 75.4847 122.445 75.6365C122.377 75.6873 122.309 75.7381 122.239 75.7904C122.057 75.9062 122.057 75.9062 121.866 75.9062C121.866 75.9695 121.866 76.0328 121.866 76.098C121.447 76.3857 121.447 76.3857 121.197 76.3857C121.197 76.449 121.197 76.5123 121.197 76.5775C120.778 76.8652 120.778 76.8652 120.528 76.8652C120.528 76.9285 120.528 76.9918 120.528 77.057C120.324 77.1956 120.324 77.1956 120.038 77.3567C119.881 77.4461 119.881 77.4461 119.721 77.5372C119.665 77.5686 119.609 77.5999 119.552 77.6321C119.328 77.7581 119.107 77.8869 118.885 78.0155C116.971 79.1222 116.971 79.1222 116.086 79.4586C115.818 79.561 115.555 79.6721 115.291 79.7842C115.094 79.8662 114.896 79.9481 114.699 80.0299C114.609 80.0685 114.518 80.1071 114.424 80.1468C111.451 81.3606 108.169 81.828 104.98 81.8061C104.625 81.8041 104.271 81.8061 103.917 81.8086C101.726 81.8114 99.5613 81.5772 97.4441 80.9959C97.2374 80.9392 97.0301 80.8851 96.8227 80.8312C96.1769 80.661 95.5491 80.4731 94.9333 80.211C94.5162 80.0364 94.0817 79.9116 93.6511 79.7752C93.3247 79.6565 93.0291 79.5189 92.7216 79.3595C92.544 79.2688 92.365 79.1855 92.1828 79.1046C90.3766 78.2955 88.6923 77.2512 87.0859 76.098C86.9913 76.0347 86.8967 75.9714 86.7992 75.9062C86.7992 75.8429 86.7992 75.7796 86.7992 75.7144C86.7046 75.7144 86.61 75.7144 86.5126 75.7144C86.5126 75.6511 86.5126 75.5878 86.5126 75.5226C86.4357 75.4969 86.3589 75.4712 86.2797 75.4447C86.1585 75.3883 86.1585 75.3883 86.0348 75.3308C85.9875 75.1884 85.9875 75.1884 85.9393 75.0431C85.8447 75.0431 85.7501 75.0431 85.6526 75.0431C85.6526 74.9798 85.6526 74.9165 85.6526 74.8513C85.5896 74.8513 85.5265 74.8513 85.4615 74.8513C85.4615 74.788 85.4615 74.7247 85.4615 74.6595C85.409 74.6371 85.3564 74.6147 85.3022 74.5917C84.5022 74.1465 83.82 73.3082 83.1744 72.6635C83.1145 72.6039 83.0547 72.5443 82.993 72.4829C82.0218 71.5047 82.0218 71.5047 82.0218 71.2071C81.9587 71.2071 81.8957 71.2071 81.8307 71.2071C81.8051 71.1299 81.7795 71.0528 81.7531 70.9733C81.7156 70.8922 81.6782 70.8111 81.6396 70.7276C81.545 70.6959 81.4504 70.6643 81.353 70.6317C80.9708 70.1165 80.9708 70.1165 80.9708 69.8644C80.9077 69.8644 80.8446 69.8644 80.7797 69.8644C80.6527 69.709 80.6527 69.709 80.5102 69.4936C80.4591 69.4166 80.408 69.3395 80.3553 69.2602C80.2757 69.138 80.2757 69.138 80.1944 69.0133C80.1406 68.9326 80.0868 68.8519 80.0313 68.7687C79.6331 68.1638 79.6331 68.1638 79.6331 67.9464C79.57 67.9464 79.507 67.9464 79.442 67.9464C79.2504 67.595 79.0595 67.2433 78.8687 66.8915C78.7878 66.7428 78.7878 66.7428 78.7052 66.5911C78.1045 65.4807 77.5422 64.3747 77.0876 63.1967C77 62.9722 76.9082 62.7492 76.8125 62.528C75.941 60.4601 75.4521 58.1882 75.1184 55.9768C75.095 55.8245 75.095 55.8245 75.0712 55.669C74.872 54.2816 74.8395 52.8908 74.8432 51.4914C74.8437 51.2598 74.8432 51.0283 74.8426 50.7967C74.8418 49.3474 74.9083 47.923 75.1304 46.4887C75.1458 46.383 75.1612 46.2773 75.177 46.1684C75.3333 45.1314 75.5689 44.117 75.8529 43.1082C75.8712 43.0419 75.8895 42.9756 75.9084 42.9074C75.9701 42.6862 76.0336 42.4656 76.0978 42.2451C76.1251 42.151 76.1524 42.057 76.1806 41.9601C76.4122 41.183 76.6846 40.4279 76.9816 39.6737C77.0278 39.5562 77.0741 39.4387 77.1217 39.3176C78.0087 37.0915 79.2073 34.5821 80.7797 32.7509C80.8427 32.7509 80.9058 32.7509 80.9708 32.7509C80.9708 32.656 80.9708 32.561 80.9708 32.4632C81.0338 32.4632 81.0969 32.4632 81.1619 32.4632C81.2003 32.3475 81.2003 32.3475 81.2395 32.2294C81.2769 32.1483 81.3144 32.0673 81.353 31.9837C81.4476 31.952 81.5421 31.9204 81.6396 31.8878C81.6396 31.7929 81.6396 31.6979 81.6396 31.6001C81.7027 31.6001 81.7657 31.6001 81.8307 31.6001C81.8553 31.5462 81.88 31.4923 81.9053 31.4368C82.0353 31.1909 82.1869 30.9813 82.3562 30.761C82.4144 30.6843 82.4725 30.6077 82.5324 30.5287C82.5846 30.4708 82.6368 30.413 82.6906 30.3534C82.7537 30.3534 82.8168 30.3534 82.8817 30.3534C82.8817 30.2901 82.8817 30.2268 82.8817 30.1616C82.9448 30.1616 83.0079 30.1616 83.0728 30.1616C83.1201 30.0192 83.1201 30.0192 83.1684 29.8739C83.2314 29.8739 83.2945 29.8739 83.3595 29.8739C83.3595 29.8106 83.3595 29.7473 83.3595 29.6821C83.4225 29.6821 83.4856 29.6821 83.5506 29.6821C83.5506 29.6188 83.5506 29.5555 83.5506 29.4903C83.6136 29.4903 83.6767 29.4903 83.7417 29.4903C83.7673 29.429 83.7929 29.3676 83.8193 29.3045C83.9328 29.1067 83.9328 29.1067 84.2194 29.0108C84.2194 28.9475 84.2194 28.8842 84.2194 28.819C84.2825 28.819 84.3455 28.819 84.4105 28.819C84.4105 28.7557 84.4105 28.6924 84.4105 28.6272C84.4736 28.6272 84.5366 28.6272 84.6016 28.6272C84.6016 28.5639 84.6016 28.5006 84.6016 28.4354C84.6647 28.4354 84.7277 28.4354 84.7927 28.4354C84.84 28.293 84.84 28.293 84.8883 28.1477C85.0557 27.9914 85.2299 27.8423 85.4078 27.6981C85.5495 27.5819 85.5495 27.5819 85.6941 27.4633C85.9393 27.2846 85.9393 27.2846 86.1304 27.2846C86.1304 27.2213 86.1304 27.158 86.1304 27.0928C86.1934 27.0928 86.2565 27.0928 86.3215 27.0928C86.3215 27.0295 86.3215 26.9662 86.3215 26.901C86.4524 26.7857 86.4524 26.7857 86.6365 26.6575C86.7038 26.6101 86.7712 26.5628 86.8406 26.514C86.9502 26.4385 86.9502 26.4385 87.062 26.3615C87.1742 26.2835 87.1742 26.2835 87.2886 26.2038C87.4392 26.0993 87.5899 25.9951 87.7409 25.8913C87.9074 25.7766 88.0731 25.6605 88.2384 25.5441C89.5948 24.6062 91.0523 23.8162 92.5543 23.1415C92.7016 23.0747 92.8477 23.0053 92.9935 22.9353C94.2472 22.337 95.5828 21.8717 96.9274 21.5305C97.0015 21.5115 97.0757 21.4925 97.1521 21.4729C98.4424 21.1463 99.7275 20.9348 101.05 20.7929C101.306 20.7651 101.562 20.7346 101.818 20.7034C105.991 20.212 110.605 20.8477 114.508 22.3936ZM96.6407 40.0394C96.6407 40.1026 96.6407 40.1659 96.6407 40.2312C96.5875 40.2569 96.5343 40.2826 96.4795 40.3091C96.2382 40.4334 96.0066 40.5596 95.7808 40.7107C95.7808 40.7739 95.7808 40.8372 95.7808 40.9025C95.7254 40.9278 95.6699 40.9531 95.6128 40.9793C95.0091 41.3033 94.4511 41.8747 94.0609 42.4369C94.0609 42.5002 94.0609 42.5635 94.0609 42.6287C93.9979 42.6287 93.9348 42.6287 93.8698 42.6287C93.7398 42.7712 93.7398 42.7712 93.619 42.9523C93.5764 43.0124 93.5338 43.0725 93.4899 43.1344C93.3758 43.2954 93.3758 43.2954 93.3921 43.4918C93.329 43.4918 93.2659 43.4918 93.201 43.4918C91.1253 47.2164 90.2104 50.8643 91.3557 55.0658C91.6862 56.2198 92.2248 57.2244 92.8188 58.2605C92.8818 58.2605 92.9449 58.2605 93.0099 58.2605C93.0729 58.4504 93.136 58.6402 93.201 58.8359C93.264 58.8359 93.3271 58.8359 93.3921 58.8359C93.3921 58.9308 93.3921 59.0258 93.3921 59.1236C93.4985 59.2369 93.6062 59.3493 93.7198 59.4555C93.9619 59.6936 94.1736 59.9581 94.3905 60.2193C94.4394 60.2691 94.4883 60.319 94.5387 60.3703C94.6017 60.3703 94.6648 60.3703 94.7298 60.3703C94.7554 60.4276 94.781 60.485 94.8074 60.5441C94.9208 60.7537 95.0256 60.8894 95.2075 61.0416C95.2706 61.0416 95.3336 61.0416 95.3986 61.0416C95.3986 61.1049 95.3986 61.1682 95.3986 61.2334C95.5568 61.3311 95.7161 61.4269 95.8763 61.5211C95.9079 61.5844 95.9394 61.6477 95.9719 61.7129C96.0665 61.7129 96.1611 61.7129 96.2585 61.7129C96.2585 61.7762 96.2585 61.8395 96.2585 61.9047C96.5423 61.9996 96.5423 61.9996 96.8318 62.0965C96.8318 62.1598 96.8318 62.2231 96.8318 62.2883C96.9013 62.3232 96.9708 62.358 97.0423 62.3939C97.1384 62.4422 97.2345 62.4904 97.3334 62.54C97.4923 62.619 97.4923 62.619 97.6544 62.6996C97.8522 62.7998 98.0487 62.9025 98.2427 63.0098C99.1293 63.4904 100.067 63.7565 101.036 64.0145C101.214 64.064 101.214 64.064 101.395 64.1145C104.587 64.8638 107.848 64.063 110.686 62.576C110.749 62.5443 110.812 62.5127 110.877 62.4801C110.877 62.4168 110.877 62.3535 110.877 62.2883C110.959 62.2655 111.042 62.2428 111.126 62.2194C111.491 62.0814 111.75 61.9012 112.06 61.6649C112.112 61.6262 112.164 61.5876 112.218 61.5477C112.348 61.4481 112.473 61.3413 112.597 61.2334C112.597 61.1701 112.597 61.1068 112.597 61.0416C112.66 61.0416 112.723 61.0416 112.788 61.0416C112.788 60.9783 112.788 60.915 112.788 60.8498C112.842 60.828 112.895 60.8063 112.95 60.7839C113.234 60.622 113.431 60.4214 113.648 60.1785C113.648 60.1152 113.648 60.0519 113.648 59.9867C113.711 59.9867 113.774 59.9867 113.839 59.9867C113.996 59.8105 114.139 59.6351 114.281 59.4472C114.324 59.3915 114.366 59.3358 114.41 59.2784C114.853 58.6829 115.207 58.0502 115.559 57.3974C115.598 57.3319 115.636 57.2663 115.675 57.1988C115.98 56.6727 116.197 56.1473 116.383 55.5693C116.412 55.4822 116.441 55.3951 116.47 55.3053C116.714 54.5399 116.869 53.7792 116.993 52.9859C117.009 52.9129 117.025 52.8398 117.042 52.7645C117.586 49.7222 116.622 46.7298 115.105 44.1391C115.068 44.0749 115.031 44.0108 114.993 43.9447C114.901 43.7902 114.801 43.6405 114.699 43.4918C114.636 43.4918 114.573 43.4918 114.508 43.4918C114.487 43.4245 114.465 43.3573 114.443 43.288C114.285 42.9412 114.098 42.7162 113.839 42.4369C113.776 42.4369 113.713 42.4369 113.648 42.4369C113.648 42.3736 113.648 42.3103 113.648 42.2451C113.585 42.2451 113.522 42.2451 113.457 42.2451C113.432 42.1877 113.406 42.1303 113.38 42.0712C113.266 41.8616 113.161 41.7259 112.98 41.5738C112.916 41.5738 112.853 41.5738 112.788 41.5738C112.788 41.5105 112.788 41.4472 112.788 41.382C112.603 41.2078 112.603 41.2078 112.37 41.0343C112.293 40.9737 112.215 40.9132 112.135 40.8508C111.944 40.6928 111.944 40.6928 111.737 40.7107C111.737 40.6474 111.737 40.5841 111.737 40.5189C111.234 40.1419 110.68 39.8259 110.113 39.5557C109.977 39.4905 109.843 39.422 109.71 39.3512C105.534 37.1502 100.598 37.7495 96.6407 40.0394Z" fill="#EC6019"/>
<path d="M195.724 25.2706C202.567 25.2706 209.409 25.2706 216.459 25.2706C216.781 26.1334 216.781 26.1334 216.882 26.5136C216.904 26.5974 216.927 26.6812 216.95 26.7675C216.973 26.8551 216.996 26.9426 217.02 27.0328C217.07 27.2216 217.121 27.4104 217.172 27.5992C217.197 27.6923 217.221 27.7854 217.247 27.8813C217.553 29.0238 217.879 30.1601 218.211 31.2951C218.402 31.9523 218.586 32.6113 218.764 33.2723C218.982 34.082 219.211 34.8873 219.45 35.6911C220.004 37.5671 220.55 39.447 221.045 41.34C221.288 42.264 221.561 43.1793 221.829 44.0961C222.022 44.7564 222.21 45.4178 222.393 46.0811C222.678 47.1205 222.976 48.156 223.278 49.1907C223.429 49.7085 223.577 50.2271 223.724 50.7461C223.793 50.988 223.863 51.2294 223.935 51.4706C224.115 52.0774 224.294 52.6822 224.443 53.2976C224.56 53.7829 224.703 54.2569 224.851 54.7335C225.238 55.9964 225.58 57.2706 225.907 58.5501C226.052 59.1127 226.215 59.6631 226.408 60.2114C226.535 60.6006 226.627 60.9974 226.719 61.3963C226.757 61.6119 226.757 61.6119 226.873 61.7129C227.333 60.2391 227.333 60.2391 227.73 58.7478C227.826 58.3576 227.94 57.9738 228.056 57.5891C228.241 56.9683 228.405 56.3448 228.557 55.7151C228.653 55.3232 228.767 54.9454 228.901 54.5653C229.005 54.2346 229.085 53.8982 229.166 53.5613C229.264 53.1567 229.362 52.7555 229.501 52.3626C229.68 51.8508 229.799 51.3232 229.928 50.7971C230.163 49.8357 230.428 48.8838 230.709 47.9352C230.873 47.3799 231.023 46.8217 231.17 46.2616C231.279 45.8469 231.393 45.4335 231.507 45.0202C231.526 44.9547 231.544 44.8891 231.562 44.8216C231.682 44.3917 231.803 43.9626 231.926 43.5337C232.139 42.788 232.343 42.0403 232.546 41.292C232.575 41.189 232.575 41.189 232.603 41.084C232.839 40.2158 233.07 39.3466 233.293 38.4749C233.481 37.7431 233.686 37.0192 233.907 36.2966C234.323 34.9229 234.689 33.5337 235.062 32.1478C235.111 31.9652 235.161 31.7826 235.21 31.6001C235.245 31.471 235.245 31.471 235.28 31.3394C235.432 30.7807 235.598 30.2282 235.772 29.6761C235.861 29.3744 235.931 29.072 235.998 28.765C236.11 28.257 236.261 27.7745 236.43 27.2834C236.556 26.8982 236.65 26.5079 236.742 26.1135C236.815 25.8286 236.909 25.5496 237.001 25.2706C243.875 25.2706 250.749 25.2706 257.831 25.2706C257.759 25.5594 257.68 25.8328 257.586 26.1143C257.54 26.2505 257.54 26.2505 257.494 26.3895C257.445 26.5359 257.445 26.5359 257.395 26.6852C257.326 26.8927 257.256 27.1002 257.187 27.3078C257.152 27.4145 257.116 27.5213 257.079 27.6313C256.973 27.9493 256.868 28.2675 256.764 28.5859C256.731 28.6873 256.697 28.7887 256.663 28.8932C256.599 29.0859 256.536 29.2786 256.473 29.4714C256.303 29.9867 256.117 30.4906 255.913 30.9932C255.784 31.3191 255.675 31.6502 255.568 31.9837C255.332 32.7053 255.087 33.4239 254.839 34.1414C254.803 34.2471 254.766 34.3528 254.728 34.4617C254.653 34.6785 254.578 34.8953 254.503 35.1121C254.322 35.6355 254.142 36.1592 253.961 36.6828C253.89 36.8906 253.818 37.0984 253.746 37.3062C253.711 37.409 253.675 37.5119 253.639 37.6178C253.245 38.7607 252.851 39.9035 252.456 41.0463C252.403 41.2008 252.403 41.2008 252.349 41.3584C252.278 41.5647 252.206 41.771 252.135 41.9773C251.948 42.5192 251.762 43.0613 251.576 43.6038C251.538 43.7164 251.499 43.8291 251.459 43.9452C251.386 44.1604 251.312 44.3757 251.239 44.591C250.962 45.3972 250.962 45.3972 250.794 45.7814C250.672 46.0649 250.578 46.3422 250.492 46.6385C250.333 47.1689 250.164 47.6954 249.99 48.2208C249.955 48.3273 249.955 48.3273 249.919 48.436C249.697 49.104 249.447 49.7595 249.19 50.4146C248.984 50.9499 248.812 51.4902 248.649 52.04C248.581 52.2579 248.507 52.4606 248.414 52.6682C248.272 52.9957 248.173 53.3199 248.074 53.6621C247.972 54.0041 247.862 54.3433 247.751 54.6822C247.712 54.7992 247.674 54.9163 247.634 55.0369C247.551 55.2712 247.46 55.5026 247.362 55.7307C247.243 56.0123 247.159 56.2739 247.088 56.5702C246.98 56.9863 246.837 57.3576 246.654 57.7455C246.559 57.9673 246.489 58.1836 246.424 58.4159C246.273 58.9323 246.092 59.4345 245.905 59.9387C245.669 60.5832 245.438 61.2283 245.225 61.8807C244.889 62.9036 244.536 63.9201 244.184 64.9372C244.003 65.4606 243.823 65.9843 243.642 66.5079C243.571 66.7149 243.499 66.922 243.428 67.129C243.282 67.552 243.136 67.9751 242.99 68.3982C242.668 69.335 242.345 70.2717 242.018 71.207C241.755 71.9577 241.495 72.709 241.235 73.4607C241.2 73.5626 241.165 73.6644 241.129 73.7694C240.957 74.2659 240.789 74.763 240.624 75.2618C240.502 75.6326 240.372 75.9988 240.234 76.3636C240.066 76.818 239.913 77.278 239.757 77.7366C238.804 80.5357 238.804 80.5357 238.53 81.0848C230.647 81.0848 222.765 81.0848 214.643 81.0848C214.393 80.5194 214.164 79.9737 213.969 79.3908C213.943 79.3145 213.917 79.2383 213.89 79.1597C213.808 78.9185 213.727 78.677 213.646 78.4355C213.592 78.2761 213.538 78.1166 213.484 77.9572C213.243 77.2458 213.004 76.5338 212.768 75.8207C212.519 75.0682 212.259 74.3195 211.997 73.5712C211.781 72.9494 211.58 72.3255 211.396 71.6937C211.287 71.362 211.15 71.0482 211.012 70.7275C210.934 70.505 210.858 70.2816 210.785 70.0573C210.764 69.9948 210.743 69.9323 210.722 69.8678C210.678 69.7342 210.634 69.6005 210.591 69.4668C210.474 69.1119 210.357 68.7573 210.24 68.4027C210.216 68.3314 210.193 68.2601 210.169 68.1866C209.952 67.5312 209.728 66.8784 209.501 66.2262C209.274 65.5721 209.049 64.9179 208.833 64.2602C208.552 63.4089 208.262 62.5609 207.973 61.7129C207.948 61.6401 207.923 61.5673 207.897 61.4923C207.537 60.4394 207.176 59.387 206.811 58.3357C206.466 57.3402 206.137 56.3396 205.808 55.3388C205.439 54.2163 205.068 53.0965 204.645 51.9928C204.421 51.3902 204.223 50.7785 204.024 50.1672C203.901 49.7944 203.777 49.4222 203.654 49.0499C203.529 48.6753 203.405 48.3005 203.282 47.9255C203.202 47.6815 203.121 47.4375 203.041 47.1935C203 47.0704 202.96 46.9473 202.919 46.8241C202.704 46.1668 202.48 45.5167 202.218 44.8764C202.043 44.4315 201.898 43.9761 201.75 43.5217C201.687 43.3315 201.625 43.1414 201.562 42.9512C201.514 42.8042 201.514 42.8042 201.465 42.6542C201.334 42.2549 201.201 41.8561 201.068 41.4572C200.946 41.0884 200.824 40.7193 200.702 40.3501C200.622 40.1058 200.541 39.8616 200.461 39.6174C200.42 39.4943 200.38 39.3711 200.339 39.2479C200.059 38.3896 200.059 38.3896 199.738 37.5459C199.485 36.9278 199.283 36.2922 199.075 35.6579C199.034 35.5358 198.994 35.4137 198.954 35.2917C198.873 35.0472 198.793 34.8026 198.712 34.558C198.392 33.5837 198.067 32.611 197.731 31.642C197.35 30.5402 196.973 29.437 196.596 28.3335C196.569 28.2543 196.542 28.1751 196.515 28.0935C196.388 27.7238 196.263 27.354 196.137 26.9841C196.063 26.7658 195.988 26.5484 195.911 26.3312C195.775 25.9451 195.724 25.6897 195.724 25.2706Z" fill="#EC6019"/>
<path d="M157.314 7.62488C163.778 7.62488 170.242 7.62488 176.901 7.62488C176.901 31.8666 176.901 56.1084 176.901 81.0848C170.438 81.0848 163.974 81.0848 157.314 81.0848C157.314 56.843 157.314 32.6012 157.314 7.62488Z" fill="#EC6019"/>
<path d="M276.654 25.2706C283.086 25.2706 289.519 25.2706 296.146 25.2706C296.146 43.6893 296.146 62.108 296.146 81.0848C289.714 81.0848 283.281 81.0848 276.654 81.0848C276.654 62.6661 276.654 44.2474 276.654 25.2706Z" fill="#EC6019"/>
<path d="M292.993 1.5832C292.993 1.6465 292.993 1.70979 292.993 1.775C293.044 1.78205 293.094 1.7891 293.147 1.79636C293.466 1.90067 293.708 2.09408 293.972 2.29646C294.025 2.33559 294.078 2.37472 294.133 2.41503C294.266 2.51627 294.395 2.62467 294.522 2.73401C294.522 2.7973 294.522 2.8606 294.522 2.92581C294.585 2.92581 294.648 2.92581 294.713 2.92581C294.713 2.9891 294.713 3.0524 294.713 3.11761C294.776 3.11761 294.839 3.11761 294.904 3.11761C294.904 3.18091 294.904 3.2442 294.904 3.30941C294.967 3.30941 295.03 3.30941 295.095 3.30941C295.095 3.37271 295.095 3.436 295.095 3.50121C295.19 3.53286 295.284 3.56451 295.382 3.59711C295.382 3.66041 295.382 3.7237 295.382 3.78892C295.445 3.78892 295.508 3.78892 295.573 3.78892C295.734 4.00153 295.881 4.21306 296.027 4.43624C296.069 4.50175 296.112 4.56725 296.156 4.63474C296.767 5.58283 297.2 6.5308 297.484 7.62494C297.527 7.78219 297.527 7.78219 297.571 7.94261C298.16 10.4093 297.74 13.1848 296.451 15.3629C296.098 15.916 295.708 16.4258 295.286 16.9273C295.234 16.9938 295.181 17.0603 295.127 17.1288C294.86 17.4629 294.664 17.6765 294.235 17.7904C294.235 17.8537 294.235 17.917 294.235 17.9822C294.013 18.1467 293.792 18.2996 293.56 18.4497C293.497 18.4914 293.435 18.533 293.37 18.576C293.182 18.6999 292.992 18.8212 292.802 18.9412C292.747 18.9756 292.693 19.01 292.637 19.0454C292.192 19.314 291.727 19.4955 291.237 19.6665C291.113 19.7102 291.113 19.7102 290.986 19.7547C290.2 20.0204 289.416 20.168 288.598 20.2838C288.509 20.3003 288.421 20.3168 288.33 20.3338C287.759 20.4196 287.18 20.3988 286.603 20.3977C286.536 20.3976 286.469 20.3975 286.4 20.3973C284.069 20.3892 281.986 19.9109 279.903 18.8453C279.903 18.782 279.903 18.7187 279.903 18.6535C279.851 18.6455 279.799 18.6374 279.745 18.6292C279.445 18.5336 279.24 18.3694 278.989 18.18C278.723 17.9803 278.459 17.7837 278.183 17.5986C278.183 17.5353 278.183 17.472 278.183 17.4068C278.088 17.3752 277.994 17.3435 277.896 17.3109C277.896 17.2476 277.896 17.1843 277.896 17.1191C277.833 17.1191 277.77 17.1191 277.705 17.1191C277.705 17.0558 277.705 16.9925 277.705 16.9273C277.642 16.9273 277.579 16.9273 277.514 16.9273C277.339 16.7193 277.178 16.5118 277.018 16.292C276.971 16.2269 276.924 16.1618 276.876 16.0947C275.682 14.407 275.089 12.5449 275.095 10.4886C275.095 10.2815 275.093 10.0746 275.091 9.86755C275.087 9.02378 275.176 8.24719 275.412 7.43314C275.431 7.36532 275.451 7.29751 275.471 7.22764C275.712 6.44565 276.056 5.74176 276.463 5.03562C276.528 4.90828 276.592 4.78059 276.654 4.65202C276.717 4.65202 276.78 4.65202 276.845 4.65202C276.845 4.55708 276.845 4.46214 276.845 4.36432C276.908 4.36432 276.971 4.36432 277.036 4.36432C277.066 4.30498 277.095 4.24564 277.126 4.18451C277.192 4.05264 277.257 3.92078 277.323 3.78892C277.386 3.78892 277.449 3.78892 277.514 3.78892C277.552 3.70288 277.552 3.70288 277.592 3.6151C277.705 3.40546 277.81 3.26977 277.992 3.11761C278.055 3.11761 278.118 3.11761 278.183 3.11761C278.183 3.05432 278.183 2.99102 278.183 2.92581C278.246 2.92581 278.309 2.92581 278.374 2.92581C278.421 2.7834 278.421 2.7834 278.47 2.63811C278.983 2.25451 278.983 2.25451 279.234 2.25451C279.234 2.19121 279.234 2.12792 279.234 2.0627C279.6 1.8122 279.992 1.60513 280.381 1.3914C280.463 1.34615 280.545 1.30091 280.629 1.25429C281.848 0.612462 283.145 0.374584 284.489 0.144693C284.593 0.125778 284.698 0.106864 284.805 0.0873769C287.731 -0.232661 290.365 0.339988 292.993 1.5832Z" fill="#EC6019"/>
<path d="M70.6515 18.2699C72.2713 18.6164 72.2713 18.6164 73.0163 18.8393C73.5926 19.0108 74.1733 19.1463 74.7601 19.2769C75.4452 19.4293 76.1177 19.6 76.7905 19.8013C77.257 19.9301 77.7276 20.0348 78.1998 20.14C78.8849 20.2925 79.5575 20.4631 80.2302 20.6644C80.6967 20.7932 81.1673 20.8979 81.6396 21.0031C82.3341 21.1577 83.0154 21.3287 83.6972 21.5328C84.1699 21.6665 84.6475 21.7763 85.1265 21.8847C85.6339 22.0006 85.6339 22.0006 85.8437 22.1059C85.7601 22.7533 85.7601 22.7533 85.6526 22.969C85.5895 22.969 85.5265 22.969 85.4615 22.969C85.4615 23.0323 85.4615 23.0956 85.4615 23.1608C85.3984 23.1608 85.3354 23.1608 85.2704 23.1608C85.2324 23.2452 85.2324 23.2452 85.1936 23.3314C85.0758 23.5509 84.9504 23.7039 84.78 23.8846C84.6891 23.9814 84.6891 23.9814 84.5964 24.0802C84.5311 24.1486 84.4658 24.2171 84.3985 24.2877C84.2978 24.394 84.2978 24.394 84.1951 24.5025C83.7021 25.0207 83.2045 25.5344 82.7025 26.0438C82.6373 26.1106 82.572 26.1774 82.5047 26.2462C82.4138 26.3376 82.4138 26.3376 82.3211 26.4308C82.2678 26.4847 82.2145 26.5386 82.1595 26.5942C82.0218 26.7092 82.0218 26.7092 81.8307 26.7092C81.8307 26.7724 81.8307 26.8357 81.8307 26.901C81.6803 27.0497 81.6803 27.0497 81.4783 27.2186C81.2407 27.4205 81.012 27.6215 80.7975 27.848C80.5885 28.0518 80.5885 28.0518 80.3019 28.1477C80.2704 28.211 80.2388 28.2743 80.2063 28.3395C80.1748 28.4028 80.1433 28.4661 80.1108 28.5313C79.9689 28.5787 79.9689 28.5787 79.8241 28.6272C79.8241 28.6905 79.8241 28.7538 79.8241 28.819C79.7611 28.819 79.698 28.819 79.633 28.819C79.633 28.8823 79.633 28.9456 79.633 29.0108C79.57 29.0108 79.5069 29.0108 79.442 29.0108C79.442 29.0741 79.442 29.1374 79.442 29.2026C79.3789 29.2026 79.3158 29.2026 79.2509 29.2026C79.2036 29.345 79.2036 29.345 79.1553 29.4903C79.0922 29.4903 79.0292 29.4903 78.9642 29.4903C78.9642 29.5536 78.9642 29.6169 78.9642 29.6821C78.9011 29.6821 78.8381 29.6821 78.7731 29.6821C78.7731 29.7454 78.7731 29.8087 78.7731 29.8739C78.7101 29.8739 78.647 29.8739 78.582 29.8739C78.582 29.9372 78.582 30.0005 78.582 30.0657C78.519 30.0657 78.4559 30.0657 78.3909 30.0657C78.3436 30.2081 78.3436 30.2081 78.2954 30.3534C78.2323 30.3534 78.1692 30.3534 78.1043 30.3534C78.1043 30.4167 78.1043 30.48 78.1043 30.5452C78.0412 30.5452 77.9781 30.5452 77.9132 30.5452C77.9132 30.6085 77.9132 30.6718 77.9132 30.737C77.8501 30.737 77.7871 30.737 77.7221 30.737C77.6965 30.7983 77.6708 30.8596 77.6444 30.9228C77.531 31.1206 77.531 31.1206 77.2443 31.2165C77.2443 31.2798 77.2443 31.3431 77.2443 31.4083C77.1813 31.4083 77.1182 31.4083 77.0532 31.4083C77.0532 31.4716 77.0532 31.5349 77.0532 31.6001C76.9902 31.6001 76.9271 31.6001 76.8621 31.6001C76.8405 31.6693 76.8188 31.7385 76.7965 31.8099C76.6458 32.1339 76.4503 32.3134 76.1933 32.5591C76.1362 32.6422 76.079 32.7252 76.0201 32.8108C75.7412 33.1147 75.4434 33.2306 75.0467 33.3263C74.9206 33.3263 74.7945 33.3263 74.6645 33.3263C74.6439 33.2448 74.6232 33.1633 74.6019 33.0793C74.0925 31.0659 74.0925 31.0659 73.525 29.0685C73.2992 28.3086 73.1052 27.5398 72.9092 26.7717C72.6595 25.7968 72.3972 24.8293 72.1024 23.8671C71.9067 23.2218 71.7425 22.5711 71.5836 21.9159C71.4506 21.3706 71.2968 20.8358 71.1274 20.3007C71.0168 19.9413 70.9162 19.58 70.8187 19.2169C70.7867 19.098 70.7547 18.9791 70.7217 18.8565C70.6515 18.5576 70.6515 18.5576 70.6515 18.2699Z" fill="#EC6019"/>
<path d="M104.35 4.7959C104.667 4.84385 104.667 4.84385 104.858 4.93975C104.949 5.10662 105.034 5.27721 105.115 5.44922C105.317 5.86577 105.529 6.26803 105.766 6.66596C106.042 7.13293 106.289 7.60783 106.525 8.0966C106.682 8.40911 106.849 8.71391 107.02 9.0193C107.252 9.43599 107.479 9.85523 107.706 10.2742C107.757 10.3666 107.807 10.459 107.859 10.5542C108.206 11.194 108.549 11.8355 108.89 12.4788C109.168 13.0038 109.449 13.5272 109.731 14.0503C109.805 14.1881 109.805 14.1881 109.88 14.3286C110.103 14.7441 110.331 15.1532 110.579 15.5547C110.977 16.2128 111.304 16.9082 111.642 17.5986C111.878 18.0733 111.878 18.0733 112.12 18.5576C106.98 18.5576 101.84 18.5576 96.5452 18.5576C96.8676 17.8024 96.8676 17.8024 97.0061 17.5271C97.0354 17.4687 97.0646 17.4103 97.0948 17.3501C97.1243 17.2917 97.1538 17.2333 97.1841 17.1731C97.2148 17.1121 97.2454 17.0511 97.2769 16.9882C97.3513 16.84 97.426 16.6918 97.5007 16.5437C97.5637 16.5437 97.6268 16.5437 97.6917 16.5437C97.6996 16.4785 97.7075 16.4132 97.7156 16.3459C97.8061 15.9904 97.9853 15.7058 98.1695 15.3929C98.7127 14.4557 98.7127 14.4557 99.2086 13.4929C99.4445 13.0083 99.7096 12.547 99.9849 12.0843C100.367 11.4426 100.714 10.7925 101.036 10.1184C101.111 9.9664 101.187 9.81454 101.263 9.66286C101.314 9.56 101.365 9.45715 101.418 9.35118C101.481 9.35118 101.544 9.35118 101.609 9.35118C101.62 9.29901 101.63 9.24684 101.641 9.19309C101.851 8.4523 102.301 7.76841 102.701 7.11737C102.88 6.80821 103.036 6.48955 103.192 6.16848C103.835 4.86605 103.835 4.86605 104.35 4.7959Z" fill="#EC6019"/>
<path d="M73.9002 68.7137C74.222 68.8595 74.3405 68.9555 74.4735 69.2891C74.5366 69.2891 74.5996 69.2891 74.6646 69.2891C74.6646 69.3524 74.6646 69.4157 74.6646 69.481C74.7217 69.5067 74.7789 69.5324 74.8378 69.5589C75.0466 69.6727 75.1818 69.7779 75.3334 69.9605C75.3334 70.0237 75.3334 70.087 75.3334 70.1523C75.3965 70.1523 75.4596 70.1523 75.5245 70.1523C75.5245 70.2155 75.5245 70.2788 75.5245 70.3441C75.5817 70.3698 75.6388 70.3955 75.6977 70.422C75.9066 70.5358 76.0418 70.641 76.1934 70.8236C76.1934 70.8869 76.1934 70.9501 76.1934 71.0154C76.2564 71.0154 76.3195 71.0154 76.3845 71.0154C76.3845 71.0787 76.3845 71.1419 76.3845 71.2072C76.4416 71.2329 76.4988 71.2586 76.5577 71.2851C76.7665 71.3989 76.9017 71.5041 77.0533 71.6867C77.0533 71.75 77.0533 71.8133 77.0533 71.8785C77.1164 71.8785 77.1794 71.8785 77.2444 71.8785C77.2444 71.9418 77.2444 72.0051 77.2444 72.0703C77.3016 72.096 77.3587 72.1217 77.4176 72.1482C77.6265 72.262 77.7616 72.3672 77.9132 72.5498C77.9132 72.6131 77.9132 72.6764 77.9132 72.7416C77.9763 72.7416 78.0394 72.7416 78.1043 72.7416C78.1043 72.8049 78.1043 72.8682 78.1043 72.9334C78.1615 72.9591 78.2186 72.9848 78.2775 73.0113C78.4864 73.1251 78.6216 73.2303 78.7732 73.4129C78.7732 73.4762 78.7732 73.5395 78.7732 73.6047C78.8362 73.6047 78.8993 73.6047 78.9643 73.6047C78.9643 73.668 78.9643 73.7313 78.9643 73.7965C79.0214 73.8222 79.0786 73.8479 79.1375 73.8744C79.3463 73.9882 79.4815 74.0934 79.6331 74.276C79.6331 74.3393 79.6331 74.4026 79.6331 74.4678C79.6962 74.4678 79.7592 74.4678 79.8242 74.4678C79.8242 74.5311 79.8242 74.5944 79.8242 74.6596C79.8814 74.6853 79.9385 74.711 79.9974 74.7375C80.2063 74.8513 80.3415 74.9565 80.4931 75.1391C80.4931 75.2024 80.4931 75.2657 80.4931 75.3309C80.5561 75.3309 80.6192 75.3309 80.6842 75.3309C80.6842 75.3942 80.6842 75.4575 80.6842 75.5227C80.7699 75.5613 80.7699 75.5613 80.8573 75.6006C81.0662 75.7144 81.2014 75.8196 81.353 76.0022C81.353 76.0655 81.353 76.1288 81.353 76.194C81.4161 76.194 81.4791 76.194 81.5441 76.194C81.5441 76.2573 81.5441 76.3206 81.5441 76.3858C81.6298 76.4244 81.6298 76.4244 81.7173 76.4637C81.9261 76.5775 82.0613 76.6827 82.2129 76.8653C82.2129 76.9286 82.2129 76.9919 82.2129 77.0571C82.276 77.0571 82.3391 77.0571 82.404 77.0571C82.404 77.1204 82.404 77.1837 82.404 77.2489C82.4612 77.2746 82.5183 77.3003 82.5772 77.3268C82.7861 77.4406 82.9213 77.5458 83.0729 77.7284C83.0729 77.7917 83.0729 77.855 83.0729 77.9202C83.1359 77.9202 83.199 77.9202 83.264 77.9202C83.264 77.9835 83.264 78.0468 83.264 78.112C83.3185 78.1344 83.3731 78.1568 83.4293 78.1798C83.6981 78.3335 83.8564 78.5184 84.0582 78.7533C84.4163 79.1633 84.7854 79.5544 85.1749 79.9341C84.5787 80.5326 83.27 80.6197 82.4651 80.7977C81.851 80.9356 81.2463 81.0935 80.6424 81.2707C79.3851 81.6396 78.1175 81.9645 76.8487 82.2907C76.4929 82.3822 76.1371 82.4738 75.7813 82.5654C75.6738 82.593 75.6738 82.593 75.5641 82.6213C74.6197 82.8643 73.6768 83.1124 72.7357 83.3686C72.0599 83.5524 71.3841 83.7355 70.7053 83.908C70.5892 83.9375 70.473 83.9671 70.3533 83.9975C70.0783 84.0578 70.0783 84.0578 69.7916 84.0578C70.0948 82.6747 70.4754 81.314 70.8542 79.9503C70.9796 79.4969 71.1002 79.0423 71.22 78.5874C71.3028 78.2732 71.3871 77.9594 71.4716 77.6456C71.7483 76.6175 72.0227 75.5889 72.2878 74.5577C72.4695 73.8519 72.6634 73.1516 72.8727 72.4537C73.0234 71.9475 73.1525 71.4378 73.2765 70.9245C73.4585 70.1802 73.6795 69.4473 73.9002 68.7137Z" fill="#EC6019"/>
<path d="M96.5452 84.3455C101.748 84.3455 106.95 84.3455 112.311 84.3455C112.166 84.7816 112.044 85.0782 111.815 85.4603C111.756 85.5603 111.696 85.6603 111.635 85.7634C111.574 85.8651 111.513 85.9668 111.451 86.0717C111.023 86.7998 110.609 87.5338 110.209 88.2774C109.947 88.7574 109.678 89.2321 109.402 89.7039C109.086 90.2454 108.786 90.7942 108.489 91.3462C108.145 91.9828 107.779 92.6054 107.412 93.2286C107.138 93.6956 106.874 94.167 106.618 94.6447C106.467 94.923 106.308 95.1964 106.148 95.4699C105.786 96.0886 105.442 96.7165 105.108 97.3512C105.067 97.4286 105.026 97.506 104.983 97.5857C104.93 97.6883 104.93 97.6883 104.875 97.7929C104.762 97.9633 104.762 97.9633 104.476 98.1551C104.427 98.0694 104.379 97.9836 104.329 97.8952C104.262 97.778 104.196 97.6609 104.129 97.5438C104.095 97.483 104.06 97.4222 104.025 97.3595C103.772 96.9147 103.509 96.4772 103.237 96.0442C103.138 95.8535 103.138 95.8535 103.138 95.5658C103.075 95.5658 103.012 95.5658 102.947 95.5658C102.898 95.4733 102.898 95.4733 102.848 95.3789C102.577 94.8717 102.295 94.3761 101.991 93.8876C101.715 93.4413 101.459 92.9904 101.213 92.5266C101.062 92.2563 100.906 91.9917 100.746 91.7272C100.693 91.641 100.641 91.5547 100.587 91.4659C100.481 91.2919 100.375 91.1183 100.268 90.945C100.219 90.8647 100.17 90.7845 100.12 90.7019C100.053 90.5937 100.053 90.5937 99.9855 90.4833C99.8894 90.2913 99.8894 90.2913 99.8894 90.0036C99.8263 90.0036 99.7632 90.0036 99.6983 90.0036C99.647 89.8968 99.5958 89.79 99.543 89.6799C99.3932 89.3792 99.2323 89.0901 99.0582 88.803C98.718 88.2378 98.3868 87.6674 98.056 87.0966C97.9392 86.8952 97.8224 86.6938 97.7056 86.4924C97.6292 86.3606 97.6292 86.3606 97.5513 86.2263C97.452 86.056 97.349 85.8879 97.243 85.7217C97.1185 85.4963 97.1185 85.4963 97.1185 85.2086C97.0554 85.2086 96.9923 85.2086 96.9274 85.2086C96.8634 85.0828 96.7998 84.9569 96.7363 84.831C96.6831 84.7258 96.6831 84.7258 96.6288 84.6186C96.5452 84.4414 96.5452 84.4414 96.5452 84.3455Z" fill="#EC6019"/>
<path d="M71.8936 43.4918C71.8936 48.6503 71.8936 53.8088 71.8936 59.1236C71.7675 59.092 71.6414 59.0603 71.5114 59.0277C71.5114 58.9644 71.5114 58.9011 71.5114 58.8359C71.4582 58.8253 71.405 58.8146 71.3501 58.8037C71.0931 58.7296 70.8863 58.6193 70.6526 58.4887C70.5599 58.4369 70.4672 58.3851 70.3717 58.3317C69.8836 58.0538 69.398 57.7718 68.9137 57.4873C68.8155 57.4299 68.7173 57.3725 68.6161 57.3133C68.1303 57.0285 67.6482 56.7407 67.1762 56.4334C67.0056 56.3266 67.0056 56.3266 66.734 56.2466C66.734 56.1833 66.734 56.12 66.734 56.0548C66.6779 56.0426 66.6217 56.0304 66.5638 56.0178C66.2248 55.9236 65.9326 55.7378 65.6292 55.5633C65.5614 55.5247 65.4935 55.4861 65.4236 55.4464C64.9373 55.1676 64.466 54.8694 63.9967 54.5627C63.7079 54.3851 63.4196 54.2568 63.1032 54.1368C63.1032 54.0735 63.1032 54.0102 63.1032 53.945C62.9986 53.9047 62.9986 53.9047 62.8919 53.8637C61.9639 53.4788 61.1002 52.9075 60.2341 52.4001C59.9177 52.2148 59.6 52.0322 59.2809 51.8517C59.1317 51.7663 58.9825 51.6808 58.8333 51.5954C58.7629 51.5562 58.6925 51.517 58.62 51.4766C58.4533 51.3804 58.2932 51.2731 58.1346 51.1639C58.1346 51.0689 58.1346 50.974 58.1346 50.8762C58.2339 50.8275 58.3332 50.7788 58.4355 50.7286C59.0989 50.4008 59.7475 50.0679 60.3763 49.6763C60.7204 49.4738 61.078 49.3014 61.436 49.1252C62.0102 48.8402 62.5634 48.5205 63.1172 48.1979C63.9744 47.7001 64.834 47.2132 65.7259 46.7802C65.9755 46.6583 65.9755 46.6583 66.2223 46.497C66.4474 46.3688 66.4474 46.3688 66.734 46.3688C66.734 46.3055 66.734 46.2423 66.734 46.177C66.8424 46.1236 66.9508 46.0702 67.0625 46.0152C67.583 45.754 68.0905 45.4699 68.5938 45.1768C68.6698 45.1331 68.7458 45.0893 68.8241 45.0442C68.8929 45.004 68.9616 44.9639 69.0324 44.9225C69.2183 44.8344 69.2183 44.8344 69.5049 44.8344C69.5049 44.7711 69.5049 44.7078 69.5049 44.6426C69.6075 44.5917 69.7101 44.5408 69.8158 44.4883C69.9531 44.4199 70.0903 44.3514 70.2275 44.283C70.2948 44.2496 70.3621 44.2162 70.4315 44.1819C70.7627 44.0164 71.0876 43.8464 71.4066 43.6581C71.7025 43.4918 71.7025 43.4918 71.8936 43.4918Z" fill="#EC6019"/>
<path d="M134.096 67.8506C134.159 67.8506 134.222 67.8506 134.287 67.8506C134.539 68.4654 134.768 69.0828 134.974 69.7147C135.031 69.8906 135.089 70.0665 135.147 70.2425C135.178 70.3357 135.208 70.4289 135.24 70.525C135.418 71.0685 135.599 71.6112 135.78 72.1541C135.853 72.3749 135.926 72.5957 136 72.8164C136.114 73.1622 136.229 73.5079 136.345 73.8534C136.526 74.3939 136.702 74.9348 136.867 75.4807C137.033 76.0302 137.224 76.5683 137.419 77.108C137.565 77.5259 137.692 77.9486 137.819 78.3727C137.923 78.7048 138.038 79.0314 138.157 79.3587C138.349 79.8917 138.521 80.4277 138.684 80.9706C138.81 81.3837 138.949 81.7922 139.09 82.2008C139.16 82.4275 139.16 82.4275 139.16 82.6193C138.539 82.5668 137.936 82.4833 137.326 82.3556C137.245 82.3389 137.164 82.3223 137.08 82.3052C136.357 82.1559 135.636 81.9973 134.915 81.8383C134.324 81.7086 133.733 81.5856 133.14 81.4685C132.454 81.3328 131.769 81.1876 131.086 81.0369C130.327 80.8697 129.567 80.7103 128.805 80.5593C128.082 80.4158 127.361 80.265 126.64 80.1126C126.167 80.013 125.694 79.916 125.219 79.8251C125.087 79.7995 125.087 79.7995 124.952 79.7734C124.785 79.7414 124.618 79.71 124.452 79.6793C123.893 79.5717 123.893 79.5717 123.681 79.3587C123.743 79.2873 123.743 79.2873 123.807 79.2144C123.892 79.1167 123.892 79.1167 123.979 79.017C124.04 78.9477 124.101 78.8783 124.164 78.8069C124.282 78.6696 124.4 78.5311 124.515 78.391C124.565 78.3306 124.615 78.2701 124.666 78.2079C124.711 78.1525 124.756 78.0971 124.802 78.04C124.923 77.9202 124.923 77.9202 125.114 77.9202C125.177 77.7619 125.24 77.6037 125.305 77.4406C125.368 77.4406 125.431 77.4406 125.496 77.4406C125.496 77.3774 125.496 77.3141 125.496 77.2488C125.559 77.2488 125.622 77.2488 125.687 77.2488C125.687 77.1856 125.687 77.1223 125.687 77.057C125.796 76.9431 125.905 76.8299 126.018 76.7208C126.293 76.4533 126.55 76.1693 126.81 75.8883C126.866 75.828 126.923 75.7677 126.981 75.7056C127.034 75.6478 127.088 75.59 127.143 75.5305C127.192 75.4783 127.24 75.4261 127.29 75.3723C127.417 75.2348 127.417 75.2348 127.503 75.0431C127.566 75.0431 127.629 75.0431 127.694 75.0431C127.694 74.9798 127.694 74.9165 127.694 74.8513C127.757 74.8513 127.82 74.8513 127.885 74.8513C127.885 74.788 127.885 74.7247 127.885 74.6595C127.948 74.6595 128.011 74.6595 128.076 74.6595C128.097 74.6084 128.117 74.5572 128.138 74.5044C128.315 74.1919 128.554 73.9472 128.799 73.6885C129.145 73.3396 129.145 73.3396 129.414 72.9333C129.477 72.9333 129.54 72.9333 129.605 72.9333C129.605 72.87 129.605 72.8067 129.605 72.7415C129.668 72.7415 129.731 72.7415 129.796 72.7415C129.821 72.6866 129.845 72.6317 129.871 72.5752C129.998 72.3377 130.145 72.1533 130.322 71.9503C130.38 71.8826 130.438 71.8148 130.498 71.7451C130.656 71.5907 130.656 71.5907 130.847 71.5907C130.871 71.5368 130.894 71.4829 130.919 71.4274C131.058 71.1696 131.226 70.9708 131.42 70.7516C131.487 70.6749 131.554 70.5983 131.623 70.5193C131.803 70.344 131.803 70.344 131.994 70.344C131.994 70.2807 131.994 70.2174 131.994 70.1522C132.057 70.1522 132.12 70.1522 132.185 70.1522C132.211 70.0953 132.237 70.0384 132.263 69.9798C132.374 69.7716 132.488 69.628 132.649 69.4577C132.703 69.4009 132.756 69.3442 132.811 69.2857C132.866 69.2275 132.922 69.1693 132.979 69.1093C133.088 68.9938 133.197 68.8782 133.306 68.7624C133.385 68.6786 133.385 68.6786 133.466 68.5932C133.612 68.432 133.749 68.2659 133.885 68.0956C133.989 67.9743 133.989 67.9743 134.096 67.8506Z" fill="#EC6019"/>
<path d="M137.058 17.5027C136.905 18.3622 136.68 19.2016 136.455 20.0441C136.415 20.1922 136.376 20.3404 136.337 20.4885C136.116 21.3195 135.892 22.1493 135.66 22.9773C135.472 23.651 135.289 24.326 135.105 25.0009C135.086 25.0698 135.068 25.1387 135.048 25.2097C134.813 26.0738 134.582 26.9388 134.359 27.806C133.726 30.2583 133.726 30.2583 133.391 31.2202C133.3 31.5071 133.24 31.7994 133.181 32.0942C133.14 32.2714 133.14 32.2714 133.045 32.4632C132.719 32.4075 132.567 32.3048 132.339 32.0676C132.252 31.9778 132.252 31.9778 132.163 31.8863C132.073 31.7921 132.073 31.7921 131.982 31.696C131.862 31.5719 131.743 31.448 131.623 31.3244C131.57 31.2692 131.518 31.2141 131.463 31.1573C131.328 31.0143 131.328 31.0143 131.134 30.9288C131.134 30.8655 131.134 30.8022 131.134 30.737C131.071 30.737 131.008 30.737 130.943 30.737C130.943 30.6737 130.943 30.6104 130.943 30.5452C130.857 30.5066 130.857 30.5066 130.77 30.4672C130.561 30.3534 130.425 30.2483 130.274 30.0657C130.274 30.0024 130.274 29.9391 130.274 29.8739C130.194 29.8412 130.194 29.8412 130.113 29.8079C129.828 29.6461 129.632 29.4455 129.414 29.2026C129.414 29.1393 129.414 29.076 129.414 29.0108C129.256 28.9475 129.099 28.8842 128.936 28.819C128.936 28.7557 128.936 28.6924 128.936 28.6272C128.873 28.6272 128.81 28.6272 128.745 28.6272C128.494 28.3994 128.494 28.3994 128.267 28.1477C128.267 28.0844 128.267 28.0211 128.267 27.9559C128.204 27.9559 128.141 27.9559 128.076 27.9559C128.076 27.8926 128.076 27.8293 128.076 27.7641C128.013 27.7641 127.95 27.7641 127.885 27.7641C127.634 27.5363 127.634 27.5363 127.407 27.2845C127.407 27.2213 127.407 27.158 127.407 27.0927C127.352 27.0687 127.297 27.0447 127.24 27.0199C126.997 26.8851 126.837 26.732 126.643 26.5323C126.572 26.4603 126.501 26.3882 126.428 26.3139C126.355 26.2386 126.282 26.1634 126.207 26.0858C126.062 25.9367 125.916 25.7879 125.771 25.6393C125.707 25.5732 125.643 25.5071 125.576 25.439C125.393 25.2534 125.393 25.2534 125.114 25.0788C125.114 25.0155 125.114 24.9522 125.114 24.887C125.061 24.8653 125.008 24.8435 124.953 24.8211C124.669 24.6592 124.472 24.4587 124.254 24.2157C124.254 24.1524 124.254 24.0891 124.254 24.0239C124.199 24.0003 124.144 23.9767 124.088 23.9524C123.838 23.8131 123.675 23.6496 123.478 23.4425C123.224 23.1689 123.224 23.1689 122.917 22.969C122.917 22.9057 122.917 22.8424 122.917 22.7772C122.854 22.7772 122.791 22.7772 122.726 22.7772C122.726 22.7139 122.726 22.6506 122.726 22.5854C122.662 22.5854 122.599 22.5854 122.534 22.5854C122.379 22.4536 122.379 22.4536 122.248 22.2977C122.248 22.2344 122.248 22.1711 122.248 22.1059C122.185 22.1059 122.122 22.1059 122.057 22.1059C122.057 22.0426 122.057 21.9793 122.057 21.9141C121.994 21.9141 121.931 21.9141 121.866 21.9141C121.866 21.8192 121.866 21.7242 121.866 21.6264C122.638 21.3444 123.417 21.1362 124.214 20.9414C124.663 20.8311 125.104 20.7128 125.544 20.5715C126.067 20.4037 126.594 20.2701 127.127 20.14C127.636 20.0154 128.137 19.8893 128.632 19.7144C129.271 19.489 129.926 19.3289 130.582 19.1604C131.149 19.014 131.713 18.8593 132.274 18.6895C132.843 18.5179 133.413 18.3653 133.989 18.2244C134.642 18.064 135.287 17.8819 135.934 17.6994C136.052 17.6661 136.171 17.6328 136.293 17.5986C136.356 17.5807 136.419 17.5628 136.483 17.5443C136.676 17.5027 136.676 17.5027 137.058 17.5027Z" fill="#EC6019"/>
<path d="M136.962 43.4918C137.151 43.5868 137.151 43.5868 137.344 43.6836C137.463 43.7365 137.583 43.7886 137.703 43.8395C137.805 43.883 137.908 43.9265 138.013 43.9713C138.013 44.0346 138.013 44.0979 138.013 44.1631C138.068 44.1749 138.124 44.1867 138.181 44.1988C138.401 44.2607 138.573 44.3437 138.773 44.4553C138.847 44.4962 138.921 44.5371 138.997 44.5792C139.076 44.6238 139.156 44.6685 139.237 44.7146C139.321 44.7612 139.405 44.8077 139.491 44.8558C140.228 45.2675 140.962 45.6842 141.696 46.1021C142.201 46.3896 142.707 46.6741 143.216 46.955C143.835 47.2966 144.436 47.6503 145.028 48.0385C145.394 48.2645 145.777 48.4503 146.164 48.6394C146.582 48.8456 146.978 49.0795 147.373 49.3271C147.913 49.665 148.45 49.9829 149.024 50.2596C149.606 50.5619 150.162 50.9162 150.721 51.2598C150.303 51.6263 149.846 51.874 149.36 52.1349C148.722 52.4816 148.09 52.8356 147.467 53.2078C146.942 53.5206 146.415 53.8242 145.877 54.1124C145.717 54.1998 145.561 54.294 145.408 54.3919C145.179 54.5204 145.179 54.5204 144.893 54.5204C144.893 54.5837 144.893 54.647 144.893 54.7122C144.735 54.7438 144.577 54.7755 144.415 54.8081C144.415 54.8714 144.415 54.9347 144.415 54.9999C144.294 55.0645 144.172 55.1283 144.051 55.1917C143.983 55.2273 143.915 55.2629 143.846 55.2996C143.651 55.3835 143.651 55.3835 143.364 55.3835C143.364 55.4468 143.364 55.5101 143.364 55.5753C143.199 55.67 143.034 55.7637 142.868 55.857C142.776 55.9093 142.684 55.9616 142.589 56.0155C142.331 56.1417 142.118 56.2057 141.835 56.2466C141.835 56.3099 141.835 56.3732 141.835 56.4384C141.77 56.4733 141.706 56.5081 141.639 56.544C141.189 56.7879 140.743 57.035 140.306 57.3015C139.908 57.5442 139.502 57.771 139.092 57.993C138.838 58.1318 138.585 58.2723 138.332 58.4141C138.254 58.4579 138.176 58.5017 138.095 58.5468C137.938 58.635 137.781 58.7234 137.624 58.8119C137.516 58.8723 137.516 58.8723 137.406 58.9341C137.341 58.9706 137.277 59.0071 137.21 59.0447C137.058 59.1236 137.058 59.1236 136.962 59.1236C136.962 53.9651 136.962 48.8066 136.962 43.4918Z" fill="#EC6019"/>
</svg>
