<!-- Placeholder for hero workspace image -->
<svg width="800" height="600" viewBox="0 0 800 600" xmlns="http://www.w3.org/2000/svg">
  <defs>
    <linearGradient id="grad1" x1="0%" y1="0%" x2="100%" y2="100%">
      <stop offset="0%" style="stop-color:#f3f4f6;stop-opacity:1" />
      <stop offset="100%" style="stop-color:#e5e7eb;stop-opacity:1" />
    </linearGradient>
  </defs>
  <rect width="800" height="600" fill="url(#grad1)"/>

  <!-- Laptop mockup -->
  <rect x="200" y="150" width="400" height="280" rx="15" fill="#1f2937"/>
  <rect x="220" y="170" width="360" height="240" rx="5" fill="#111827"/>

  <!-- Screen content -->
  <rect x="240" y="190" width="80" height="60" rx="8" fill="#ec6019"/>
  <rect x="340" y="190" width="80" height="60" rx="8" fill="#f3f4f6"/>
  <rect x="440" y="190" width="80" height="60" rx="8" fill="#f3f4f6"/>

  <rect x="240" y="270" width="80" height="60" rx="8" fill="#f3f4f6"/>
  <rect x="340" y="270" width="80" height="60" rx="8" fill="#ec6019"/>
  <rect x="440" y="270" width="80" height="60" rx="8" fill="#f3f4f6"/>

  <rect x="240" y="350" width="280" height="40" rx="8" fill="#f3f4f6"/>

  <!-- Coffee cup -->
  <circle cx="120" cy="250" r="30" fill="#8b4513"/>
  <circle cx="120" cy="250" r="25" fill="#d2691e"/>
  <rect x="110" y="235" width="20" height="30" fill="#8b4513"/>

  <!-- Plant -->
  <rect x="650" y="280" width="60" height="80" fill="#8b4513"/>
  <circle cx="680" cy="270" r="40" fill="#22c55e"/>
  <circle cx="660" cy="250" r="25" fill="#16a34a"/>
  <circle cx="700" cy="255" r="30" fill="#15803d"/>

  <!-- Hand on keyboard -->
  <ellipse cx="380" cy="450" rx="60" ry="25" fill="#fbbf24"/>
  <rect x="350" y="440" width="60" height="20" rx="10" fill="#f59e0b"/>
</svg>